<svg width="514" height="188" viewBox="0 0 514 188" fill="none" xmlns="http://www.w3.org/2000/svg">
<g clip-path="url(#clip0_2201_2)">
<path d="M354.898 158.824C350.117 154.827 347.666 151.126 347.222 150.424L364.036 139.803C364.036 139.803 364.013 139.764 363.964 139.692C363.978 139.713 365.377 141.774 368.179 143.995C371.754 146.831 375.908 148.641 380.528 149.378C386.409 150.315 392.476 148.353 396.531 146.543C401.049 144.527 404.08 142.267 404.108 142.244L419.017 145.124L416.214 158.022C410.389 162.491 401.129 166.909 392.547 168.613C378.308 171.439 364.713 167.035 354.898 158.824Z" fill="#92B5F9"/>
<path d="M370.951 99.1934H176.787V119.519H370.951V99.1934Z" fill="#F47257"/>
<path d="M319.305 171.129C275.52 147.978 227.963 133.729 179.137 129.131C180.947 107.945 182.755 86.7589 184.564 65.5731C241.018 70.889 296.004 87.3651 346.629 114.134C337.522 133.132 328.414 152.13 319.305 171.129Z" fill="#4951EC"/>
<path d="M183.442 117.509C184.676 104.297 185.908 91.0835 187.141 77.8715C192.272 78.3982 196.868 75.0863 197.428 70.3395C244.492 76.2509 290.361 89.9949 333.311 111.055C331.4 115.397 333.641 120.756 338.264 123.154C332.673 135.06 327.081 146.968 321.49 158.874C317.236 156.668 312.201 158.492 310.292 162.83C272.577 144.336 232.296 132.268 190.967 127.077C191.524 122.332 188.164 117.993 183.442 117.509Z" fill="#7C9AF2"/>
<path d="M284.478 119.69C280.532 131.055 268.361 136.845 257.072 133.376C245.789 129.878 238.54 118.094 241.078 106.294C243.607 94.5137 256.13 87.4552 268.826 91.3803C281.523 95.293 288.421 108.346 284.478 119.69Z" fill="#50BFA5"/>
<path d="M256.978 129.375C257.294 128.106 257.609 126.837 257.923 125.568C256.223 125.015 254.612 124.237 253.321 123.414C252.245 122.726 251.855 121.334 252.436 120.226C252.459 120.181 252.484 120.137 252.507 120.091C253.146 118.87 254.723 118.478 255.91 119.261C257.121 120.058 258.544 120.77 260.129 121.213C262.435 121.858 264.238 121.441 264.655 119.844C265.049 118.328 263.999 116.981 261.209 115.131C257.176 112.466 254.601 109.687 255.49 105.778C256.292 102.237 259.562 100.12 264.321 100.535C264.632 99.2642 264.943 97.9953 265.254 96.7246C266.654 97.1116 268.052 97.5075 269.449 97.9104C269.151 99.0839 268.85 100.257 268.552 101.429C270.077 101.938 271.293 102.507 272.277 103.088C273.484 103.801 273.908 105.285 273.249 106.404C272.567 107.561 271.001 107.894 269.785 107.137C268.873 106.57 267.712 105.994 266.229 105.57C263.497 104.794 262.338 105.681 262.064 106.803C261.739 108.129 263.004 109.362 266.198 111.656C270.694 114.768 272.038 117.584 271.052 121.155C270.068 124.697 266.712 126.92 261.916 126.393C261.564 127.752 261.214 129.111 260.861 130.469C259.57 130.099 258.275 129.733 256.978 129.375Z" fill="#3C8F7C"/>
<path d="M234.392 105.852C223.232 103.278 211.966 101.18 200.618 99.5664C200.881 97.5287 201.143 95.4928 201.406 93.4552C212.911 95.0899 224.336 97.2177 235.652 99.8279C235.233 101.837 234.813 103.845 234.392 105.852Z" fill="#50BFA5"/>
<path d="M321.41 136.751C311.024 131.672 300.457 127.049 289.737 122.889C290.416 120.961 291.094 119.033 291.773 117.104C302.643 121.323 313.358 126.011 323.889 131.161C323.062 133.024 322.237 134.888 321.41 136.751Z" fill="#50BFA5"/>
<path d="M339.765 98.4123C294.59 107.849 251.572 126.764 212.978 154.157C202.55 136.163 192.123 118.17 181.694 100.176C226.317 68.5033 276.055 46.6353 328.288 35.7225C332.114 56.6185 335.938 77.5163 339.765 98.4123Z" fill="#4951EC"/>
<path d="M209.704 142.182C203.278 130.894 196.85 119.605 190.425 108.316C194.503 105.471 196.059 99.9163 193.835 95.7862C231.86 70.5569 273.349 52.3153 316.746 41.7454C317.746 46.4109 322.376 49.2474 327.12 48.2135C329.603 61.2346 332.088 74.2575 334.571 87.2786C330.205 88.2312 327.502 92.8826 328.502 97.5446C290.393 106.826 253.959 122.845 220.569 145.001C218.347 140.876 213.457 139.565 209.704 142.182Z" fill="#7C9AF2"/>
<path d="M285.494 79.6634C288.892 91.2089 283.122 103.551 272.863 107.971C262.594 112.365 250.7 107.607 246.02 96.6114C241.348 85.6367 246.671 72.0625 258.222 67.1106C269.767 62.1464 282.106 68.1374 285.494 79.6634Z" fill="#4951EC"/>
<path d="M270.573 104.852C270.101 103.643 269.629 102.435 269.157 101.224C267.595 101.866 265.975 102.272 264.564 102.438C263.389 102.576 262.327 101.717 262.14 100.466C262.133 100.416 262.125 100.365 262.117 100.316C261.91 98.9372 262.855 97.6241 264.168 97.4898C265.504 97.3537 266.952 97.0162 268.366 96.3605C270.426 95.4062 271.525 93.9288 270.948 92.393C270.396 90.9386 268.875 90.5357 265.787 90.8379C261.33 91.285 257.886 90.7124 256.371 87.0383C254.998 83.7123 256.235 79.9498 259.98 77.253C259.505 76.0459 259.029 74.8371 258.554 73.6301C259.803 73.0487 261.055 72.4726 262.309 71.9053C262.74 73.0275 263.17 74.1515 263.601 75.2737C265.01 74.7081 266.222 74.3883 267.273 74.2239C268.558 74.0224 269.696 74.9326 269.831 76.2421C269.969 77.5958 268.998 78.8559 267.682 79.0273C266.694 79.1563 265.517 79.4355 264.188 80.0435C261.74 81.1639 261.376 82.6078 261.799 83.6716C262.295 84.9335 263.914 85.1084 267.544 84.9017C272.589 84.5164 275.147 85.8984 276.401 89.3675C277.64 92.8101 276.398 96.7104 272.566 99.3419C273.061 100.646 273.556 101.949 274.051 103.253C272.888 103.779 271.729 104.311 270.573 104.852Z" fill="#92B5F9"/>
<path d="M240.841 100.514C231.172 105.563 221.691 111.061 212.42 116.993C211.483 115.207 210.545 113.42 209.608 111.635C219.008 105.617 228.624 100.044 238.427 94.9238C239.231 96.7865 240.036 98.6492 240.841 100.514Z" fill="#50BFA5"/>
<path d="M322.23 69.7422C311.743 72.3082 301.376 75.3532 291.153 78.863C290.584 76.8978 290.013 74.9344 289.444 72.9709C299.811 69.4117 310.322 66.3261 320.956 63.7229C321.382 65.7287 321.806 67.7346 322.23 69.7422Z" fill="#4951EC"/>
<path d="M346.973 137.902C299.993 135.055 252.943 141.95 208.302 158.225C202.156 138.045 196.011 117.864 189.865 97.686C241.479 78.8683 295.878 70.8944 350.199 74.1868C349.124 95.4257 348.048 116.664 346.973 137.902Z" fill="#4951EC"/>
<path d="M207.844 145.768C204.103 133.139 200.362 120.51 196.621 107.88C201.327 106.208 204.163 101.243 202.921 96.6592C246.491 82.3268 291.87 75.6766 337.352 76.9561C337.257 81.7365 341.187 85.7111 346.13 85.9673C345.559 99.2288 344.989 112.49 344.416 125.752C339.867 125.517 336.103 129.3 336.009 134.077C296.069 132.953 256.219 138.792 217.958 151.379C216.718 146.798 212.176 144.23 207.844 145.768Z" fill="#7C9AF2"/>
<path d="M297.541 105.365C298.22 117.44 289.626 127.855 278.425 129.412C267.222 130.94 256.539 123.18 254.461 111.297C252.384 99.4373 260.825 87.7116 273.429 85.9814C286.031 84.2407 296.866 93.312 297.541 105.365Z" fill="#4951EC"/>
<path d="M276.88 125.783C276.695 124.488 276.509 123.193 276.322 121.897C274.623 122.104 272.922 122.067 271.487 121.853C270.29 121.675 269.437 120.563 269.543 119.301C269.546 119.25 269.551 119.2 269.555 119.149C269.672 117.76 270.914 116.74 272.247 116.96C273.602 117.182 275.115 117.239 276.672 116.979C278.936 116.603 280.371 115.464 280.155 113.824C279.948 112.269 278.533 111.476 275.401 110.951C270.879 110.202 267.599 108.733 266.952 104.778C266.365 101.196 268.466 97.8821 272.809 96.265C272.619 94.9696 272.429 93.676 272.239 92.3806C273.613 92.1491 274.988 91.9246 276.364 91.7073C276.53 92.909 276.695 94.109 276.859 95.3107C278.388 95.1375 279.664 95.1481 280.743 95.2683C282.065 95.415 282.981 96.5973 282.809 97.8997C282.631 99.2464 281.374 100.208 280.03 100.026C279.02 99.8879 277.789 99.8472 276.329 100.082C273.641 100.517 272.945 101.818 273.114 102.961C273.312 104.313 274.876 104.912 278.524 105.676C283.617 106.641 285.828 108.657 286.264 112.347C286.692 116.007 284.55 119.453 280.139 120.982C280.326 122.374 280.514 123.767 280.701 125.16C279.427 125.359 278.153 125.568 276.88 125.783Z" fill="#92B5F9"/>
<path d="M248.419 113.699C237.658 116.021 226.978 118.828 216.407 122.111C215.894 120.134 215.38 118.156 214.867 116.178C225.588 112.849 236.417 110.004 247.328 107.648C247.691 109.666 248.055 111.683 248.419 113.699Z" fill="#50BFA5"/>
<path d="M336.269 105.506C325.277 105.209 314.29 105.405 303.338 106.091C303.23 104.039 303.124 101.987 303.016 99.9339C314.122 99.2394 325.263 99.0397 336.409 99.3419C336.363 101.395 336.315 103.451 336.269 105.506Z" fill="#50BFA5"/>
<path d="M370.951 99.1934H176.787V184.647H370.951V99.1934Z" fill="#FA7167"/>
<path d="M370.951 162.829H322.907C320.777 162.829 319.049 164.637 319.049 166.867C319.049 169.097 320.776 170.907 322.907 170.907H316.677C314.548 170.907 312.819 172.715 312.819 174.945C312.819 177.175 314.546 178.983 316.677 178.983H317.757C315.626 178.983 313.899 180.791 313.899 183.021C313.899 183.599 314.016 184.147 314.224 184.644H370.953V162.829H370.951Z" fill="#E8605D"/>
<path d="M360.692 103.4H183.941V110.036H360.692V103.4Z" fill="#E8605D"/>
<path d="M260.113 183.585H181.995C177.937 183.585 174.648 180.296 174.648 176.239V137.861C174.648 133.803 177.937 130.514 181.995 130.514H260.113C264.17 130.514 267.459 133.803 267.459 137.861V176.239C267.459 180.296 264.17 183.585 260.113 183.585Z" fill="#7C9AF2"/>
<path d="M203.472 141.068H180.616V154.356H203.472V141.068Z" fill="#DDE8FE"/>
<path d="M261.585 137.702H221.055V140.183H261.585V137.702Z" fill="#DDE8FE"/>
<path d="M258.573 166.05H183.983V169.115H258.573V166.05Z" fill="#DDE8FE"/>
<path d="M258.573 173.266H183.983V176.331H258.573V173.266Z" fill="#DDE8FE"/>
<path d="M268.601 121.01H186.187V123.212H268.601V121.01Z" fill="#E8605D"/>
<path d="M328.748 101.407C335.916 94.2393 335.916 82.6179 328.748 75.45C321.58 68.2821 309.959 68.2821 302.791 75.45C295.623 82.6179 295.623 94.2393 302.791 101.407C309.959 108.575 321.58 108.575 328.748 101.407Z" fill="#DDE8FE"/>
<path d="M328.378 79.5804C333.265 86.5434 331.582 96.1484 324.619 101.035C317.656 105.921 308.051 104.239 303.165 97.2759C298.278 90.3129 299.961 80.7079 306.924 75.8214C313.887 70.935 323.492 72.6174 328.378 79.5804Z" fill="#92B5F9"/>
<path d="M317.55 99.2606L316.879 96.7776C315.744 97.0303 314.587 97.1169 313.6 97.0657C312.777 97.0233 312.128 96.3482 312.118 95.5229L312.116 95.4239C312.104 94.5155 312.867 93.7821 313.774 93.8404C314.698 93.9005 315.718 93.8387 316.739 93.563C318.229 93.16 319.091 92.31 318.809 91.2655C318.54 90.2723 317.534 89.8712 315.424 89.7422C312.374 89.5584 310.114 88.7666 309.428 86.2324C308.806 83.9332 309.939 81.6923 312.586 80.3881L311.914 77.9069L314.475 77.2141L315.097 79.5133C316.059 79.2995 316.873 79.2146 317.575 79.2129C318.43 79.2093 319.127 79.9021 319.137 80.7575C319.15 81.6428 318.425 82.3621 317.541 82.3427C316.879 82.3285 316.08 82.3886 315.157 82.6378C313.459 83.0973 313.109 83.9774 313.307 84.709C313.54 85.5715 314.602 85.8719 317.05 86.1087C320.456 86.3649 322.099 87.4624 322.734 89.8146C323.363 92.1403 322.253 94.5703 319.39 95.9064L320.111 98.5714L317.55 99.2606Z" fill="white"/>
<path d="M346.063 160.149C353.231 152.981 353.231 141.36 346.063 134.192C338.895 127.024 327.274 127.024 320.106 134.192C312.938 141.36 312.938 152.981 320.106 160.149C327.274 167.317 338.895 167.317 346.063 160.149Z" fill="#DDE8FE"/>
<path d="M345.694 138.322C350.58 145.285 348.898 154.89 341.935 159.777C334.972 164.663 325.367 162.981 320.48 156.018C315.594 149.055 317.276 139.45 324.239 134.563C331.202 129.677 340.807 131.359 345.694 138.322Z" fill="#92B5F9"/>
<path d="M334.866 158.002L334.194 155.521C333.06 155.774 331.902 155.86 330.916 155.809C330.092 155.767 329.444 155.092 329.433 154.266L329.431 154.167C329.419 153.259 330.182 152.526 331.089 152.586C332.013 152.646 333.033 152.584 334.055 152.308C335.544 151.905 336.407 151.055 336.124 150.011C335.855 149.018 334.85 148.616 332.74 148.487C329.689 148.304 327.429 147.512 326.743 144.978C326.121 142.678 327.254 140.438 329.901 139.133L329.23 136.652L331.791 135.959L332.413 138.259C333.374 138.045 334.189 137.96 334.89 137.958C335.746 137.955 336.442 138.647 336.453 139.503C336.463 140.388 335.74 141.107 334.857 141.088C334.194 141.074 333.395 141.134 332.473 141.383C330.775 141.843 330.425 142.723 330.623 143.454C330.856 144.317 331.918 144.619 334.366 144.854C337.771 145.11 339.415 146.208 340.049 148.56C340.678 150.886 339.568 153.316 336.705 154.652L337.426 157.317L334.866 158.002Z" fill="white"/>
<path d="M315.746 124.964C316.17 114.836 308.304 106.281 298.177 105.856C288.049 105.432 279.494 113.298 279.069 123.425C278.645 133.553 286.511 142.108 296.638 142.533C306.766 142.957 315.321 135.091 315.746 124.964Z" fill="#DDE8FE"/>
<path d="M312.817 124.582C313.041 116.078 306.33 109.003 297.826 108.778C289.323 108.554 282.247 115.265 282.023 123.769C281.798 132.272 288.51 139.348 297.013 139.572C305.517 139.797 312.592 133.086 312.817 124.582Z" fill="#92B5F9"/>
<path d="M292.648 134.079L293.524 131.661C292.45 131.216 291.453 130.622 290.675 130.014C290.025 129.507 289.882 128.581 290.347 127.899L290.403 127.818C290.916 127.066 291.96 126.906 292.669 127.475C293.39 128.056 294.261 128.59 295.256 128.95C296.707 129.477 297.902 129.276 298.271 128.259C298.621 127.293 298.029 126.386 296.377 125.068C293.985 123.164 292.589 121.219 293.485 118.752C294.296 116.512 296.511 115.328 299.427 115.781L300.303 113.363L302.797 114.268L301.986 116.507C302.896 116.884 303.612 117.283 304.186 117.684C304.888 118.174 305.061 119.14 304.578 119.847C304.08 120.577 303.074 120.752 302.36 120.227C301.827 119.833 301.137 119.425 300.24 119.1C298.586 118.501 297.794 119.018 297.536 119.731C297.232 120.57 297.928 121.427 299.796 123.026C302.436 125.193 303.15 127.035 302.32 129.325C301.498 131.589 299.195 132.943 296.083 132.389L295.141 134.985L292.648 134.079Z" fill="white"/>
<path d="M360.694 134.775H277.566V179.326H360.694V134.775Z" fill="#EB242A"/>
<path d="M319.049 166.869C319.049 169.099 320.776 170.909 322.907 170.909H316.677C314.548 170.909 312.819 172.716 312.819 174.947C312.819 177.177 314.546 178.985 316.677 178.985H317.757C317.206 178.985 316.681 179.107 316.207 179.326H360.696V162.83H322.909C320.776 162.829 319.049 164.638 319.049 166.869Z" fill="#E8605D"/>
<path d="M370.43 179.854H320.814C318.824 179.854 317.209 178.241 317.209 176.249C317.209 174.259 318.822 172.644 320.814 172.644H370.43C372.42 172.644 374.035 174.257 374.035 176.249C374.033 178.241 372.42 179.854 370.43 179.854Z" fill="#C8141A"/>
<path d="M376.251 172.644H326.636C324.646 172.644 323.031 171.03 323.031 169.039C323.031 167.049 324.644 165.434 326.636 165.434H376.251C378.241 165.434 379.857 167.047 379.857 169.039C379.857 171.03 378.243 172.644 376.251 172.644Z" fill="#EB242A"/>
<path d="M138.517 118.446C138.858 118.998 138.761 119.712 138.284 120.152C137.351 121.014 135.864 122.023 134.055 122.702C131.407 123.695 128.468 123.792 125.819 122.589C124.163 121.838 122.649 120.484 121.581 118.732L120.017 119.319C119.485 119.519 118.893 119.25 118.694 118.718L118.678 118.678C118.478 118.146 118.747 117.554 119.279 117.354L120.562 116.872C120.355 116.446 120.21 116.179 120.12 115.938C119.97 115.537 119.828 115.041 119.713 114.489L118.39 114.986C117.858 115.186 117.266 114.915 117.066 114.385C116.866 113.853 117.135 113.261 117.667 113.061L119.272 112.459C119.021 110.448 119.286 108.472 120.037 106.816C121.314 104.002 123.721 102 126.489 100.961C128.103 100.355 129.43 100.176 130.504 100.166C131.25 100.159 131.87 100.742 131.904 101.488L131.906 101.511C131.943 102.283 131.338 102.931 130.566 102.962C129.686 102.997 128.647 103.172 127.443 103.624C125.678 104.287 124.124 105.512 123.232 107.403C122.73 108.507 122.495 109.831 122.762 111.149L131.789 107.761C132.321 107.562 132.913 107.83 133.113 108.362C133.312 108.894 133.044 109.486 132.512 109.686L123.084 113.224C123.209 113.68 123.334 114.138 123.44 114.417C123.577 114.777 123.711 115.14 123.932 115.604L133.38 112.059C133.922 111.856 134.528 112.13 134.731 112.673C134.935 113.215 134.661 113.821 134.118 114.025L125.072 117.419C125.789 118.478 126.728 119.27 127.721 119.72C129.691 120.583 131.508 120.542 133.514 119.789C134.737 119.33 135.753 118.701 136.527 118.091C137.16 117.594 138.091 117.757 138.517 118.446Z" fill="#EB242A"/>
<path d="M358.13 14.2981L362.515 15.7437C362.515 15.7437 369.467 13.4905 370.151 12.0749C370.835 10.6576 371.029 7.22028 372.017 7.12661C373.007 7.03295 374.919 7.35459 375.373 9.7068C375.704 11.414 373.203 16.3517 373.593 16.8766C373.837 17.2053 376.334 18.1083 378.169 18.7392C379.376 19.1528 380.245 20.2149 380.431 21.4962V21.4997C380.556 22.3656 380.065 23.2086 379.256 23.5214L377.994 24.0092L378.397 25.3117C378.697 26.2819 378.165 27.3228 377.207 27.6444L376.232 27.9714L376.545 28.7649C376.946 29.7863 376.38 30.9457 375.331 31.2514L374.479 31.4988L374.514 31.7268C374.661 32.6758 374.067 33.5877 373.146 33.828L372.3 34.0507L360.622 30.1963C359.528 29.8358 358.521 29.2509 357.662 28.4768L353.784 26.4303C353.367 26.2112 353.176 25.7128 353.332 25.2586L356.926 14.9061C357.101 14.4059 357.637 14.1355 358.13 14.2981Z" fill="#EB242A"/>
<path d="M15.8911 50.5433L66.4831 76.5932C69.2059 77.9956 72.6477 76.7326 74.1704 73.7747L87.09 48.683C88.6127 45.7251 87.6409 42.1904 84.9194 40.788L34.3274 14.7381C31.6046 13.3357 28.1628 14.5987 26.6401 17.5566L13.7205 42.6483C12.1964 45.6062 13.1696 49.1409 15.8911 50.5433Z" fill="#EB242A"/>
<path d="M17.9317 34.4712L14.012 42.0837L74.4651 73.2112L78.3848 65.5987L17.9317 34.4712Z" fill="#0B0754"/>
<path d="M46.6543 25.1934L33.3323 18.3203L29.52 25.7096L42.842 32.5827L46.6543 25.1934Z" fill="white"/>
<path d="M69 183.343C69 184.062 69.7238 184.645 70.618 184.645H474.013C474.907 184.645 475.631 184.062 475.631 183.343C475.631 182.624 474.907 182.041 474.013 182.041H70.618C69.7238 182.041 69 182.624 69 183.343Z" fill="#4951EC"/>
<path d="M446.379 27.9778C452.202 36.275 450.196 47.7215 441.899 53.5446C433.602 59.3677 422.155 57.3619 416.332 49.0646C410.509 40.7674 412.515 29.3209 420.812 23.4978C429.109 17.6747 440.556 19.6805 446.379 27.9778Z" fill="#DDE8FE"/>
<path d="M443.961 29.6742C448.848 36.6372 447.165 46.2422 440.202 51.1287C433.239 56.0152 423.634 54.3327 418.748 47.3698C413.861 40.4068 415.544 30.8018 422.507 25.9153C429.47 21.0288 439.075 22.7113 443.961 29.6742Z" fill="#92B5F9"/>
<path d="M433.133 49.3562L432.462 46.8732C431.327 47.126 430.169 47.2126 429.181 47.1613C428.358 47.1189 427.709 46.4438 427.699 45.6185L427.697 45.5195C427.685 44.6112 428.448 43.8778 429.355 43.9378C430.279 43.9979 431.299 43.9361 432.32 43.6604C433.81 43.2574 434.672 42.4074 434.39 41.3629C434.121 40.3698 433.115 39.9686 431.005 39.8396C427.955 39.6558 425.695 38.8641 425.009 36.3298C424.387 34.0306 425.52 31.7897 428.167 30.4855L427.496 28.0043L430.056 27.3115L430.678 29.6107C431.64 29.3969 432.454 29.3121 433.156 29.3103C434.011 29.3068 434.708 29.9995 434.718 30.8549C434.729 31.7403 434.006 32.4595 433.122 32.4401C432.46 32.426 431.661 32.486 430.738 32.7352C429.04 33.1947 428.69 34.0748 428.888 34.8064C429.121 35.6689 430.184 35.9693 432.631 36.2061C436.037 36.4624 437.68 37.5598 438.316 39.912C438.946 42.2377 437.836 44.6677 434.973 46.0038L435.694 48.6688L433.133 49.3562Z" fill="white"/>
<path d="M371.437 187.063H321.822C319.832 187.063 318.217 185.449 318.217 183.458C318.217 181.468 319.83 179.853 321.822 179.853H371.437C373.427 179.853 375.043 181.466 375.043 183.458C375.043 185.449 373.429 187.063 371.437 187.063Z" fill="#EB242A"/>
</g>
<path d="M81 119.614C81 122.099 83.0147 124.114 85.5 124.114C87.9853 124.114 90 122.099 90 119.614H81ZM262.689 48.4426C265.086 47.7858 266.497 45.3103 265.84 42.9133L255.136 3.85335C254.48 1.45643 252.004 0.0458069 249.607 0.702631C247.21 1.35946 245.8 3.835 246.456 6.23192L255.971 40.9519L221.251 50.4662C218.854 51.123 217.443 53.5986 218.1 55.9955C218.757 58.3924 221.232 59.803 223.629 59.1462L262.689 48.4426ZM90 119.614C90 95.7918 106.009 62.8086 135.304 43.3267C164.182 24.1228 206.343 17.8523 259.272 48.0124L263.728 40.1928C208.157 8.52714 162.318 14.5537 130.321 35.8326C98.7411 56.8335 81 92.5189 81 119.614H90Z" fill="#EB262C"/>
<path d="M513.5 155.116C513.5 157.601 511.485 159.616 509 159.616C506.515 159.616 504.5 157.601 504.5 155.116H513.5ZM383.804 108.837C381.408 108.177 380.001 105.699 380.662 103.303L391.421 64.2586C392.081 61.8626 394.559 60.4555 396.955 61.1158C399.351 61.776 400.758 64.2536 400.097 66.6496L390.534 101.356L425.24 110.92C427.636 111.58 429.043 114.058 428.383 116.454C427.723 118.85 425.245 120.257 422.849 119.596L383.804 108.837ZM504.5 155.116C504.5 117.186 454.672 70.1047 387.222 108.412L382.778 100.586C455.885 59.0659 513.5 109.896 513.5 155.116H504.5Z" fill="#4A52EC"/>
<defs>
<clipPath id="clip0_2201_2">
<rect width="473" height="185.897" fill="white" transform="translate(0 1.16565)"/>
</clipPath>
</defs>
</svg>
