<svg width="1364" height="1036" viewBox="0 0 1364 1036" fill="none" xmlns="http://www.w3.org/2000/svg">
<path opacity="0.06" d="M514.576 664.709C491.387 669.74 427.092 649.54 371.083 619.628C314.907 589.663 288.301 561.437 311.489 556.407C334.677 551.377 398.972 571.576 454.981 601.488C511.157 631.453 537.764 659.679 514.576 664.709Z" fill="black"/>
<g opacity="0.3">
<path d="M1117.48 911.934V998.934L1075.36 973.988L1117.48 911.934Z" fill="#D1D1D1"/>
<path d="M1117.48 998.934L1159.36 973.74L1117.48 911.934V998.934Z" fill="#B8B8B8"/>
</g>
<g clip-path="url(#clip0_2301_2)">
<g clip-path="url(#clip1_2301_2)">
<path fill-rule="evenodd" clip-rule="evenodd" d="M885.689 178.749C885.161 178.075 884.302 177.099 883.567 177.006C883.12 176.95 882.606 177.325 882.1 177.679C882.001 177.729 881.237 178.189 881.145 178.216C880.655 178.357 879.612 178.399 878.98 177.816C878.373 177.254 877.412 176.212 876.636 175.259C875.895 174.276 875.118 173.095 874.72 172.37C874.305 171.619 874.604 170.625 874.861 170.187C874.908 170.109 875.476 169.517 875.603 169.38L875.622 169.402C876.092 169.002 876.585 168.596 876.641 168.156C876.732 167.424 875.992 166.357 875.464 165.682C874.935 165.006 874.116 163.822 873 163.99C872.58 164.052 872.218 164.201 871.861 164.415L871.852 164.404L871.792 164.45L871.761 164.466L871.765 164.471C871.56 164.631 870.974 165.074 870.908 165.134C870.184 165.785 869.094 167.319 869.937 170.077C870.562 172.127 871.895 174.535 873.711 176.97L873.701 176.979C873.79 177.096 873.881 177.202 873.974 177.316C874.06 177.432 874.145 177.547 874.234 177.662L874.247 177.654C876.174 180.002 878.195 181.88 880.039 182.987C882.522 184.477 884.287 183.806 885.103 183.272C885.179 183.221 885.762 182.762 885.96 182.611L885.965 182.616C885.972 182.609 885.977 182.599 885.987 182.591C886.005 182.578 886.023 182.564 886.04 182.55L886.033 182.54C886.332 182.247 886.571 181.935 886.737 181.541C887.17 180.505 886.218 179.425 885.689 178.749V178.749Z" fill="#EB242A"/>
</g>
<path fill-rule="evenodd" clip-rule="evenodd" d="M1025.36 149.934H882.357C869.654 149.934 859.357 160.231 859.357 172.934C859.357 185.636 869.654 195.934 882.357 195.934H1025.36C1038.06 195.934 1048.36 185.636 1048.36 172.934C1048.36 160.231 1038.06 149.934 1025.36 149.934ZM882.357 147.934C868.55 147.934 857.357 159.126 857.357 172.934C857.357 186.741 868.55 197.934 882.357 197.934H1025.36C1039.16 197.934 1050.36 186.741 1050.36 172.934C1050.36 159.126 1039.16 147.934 1025.36 147.934H882.357Z" fill="#EB242A"/>
<path d="M928.157 179.094C926.834 179.094 925.815 178.592 925.101 177.59C924.386 176.576 924.029 175.136 924.029 173.27C924.029 171.382 924.386 169.947 925.101 168.966C925.815 167.984 926.834 167.494 928.157 167.494C929.49 167.494 930.509 167.984 931.213 168.966C931.927 169.947 932.285 171.376 932.285 173.254C932.285 175.131 931.927 176.576 931.213 177.59C930.509 178.592 929.49 179.094 928.157 179.094ZM928.157 177.398C928.882 177.398 929.421 177.067 929.773 176.406C930.125 175.734 930.301 174.683 930.301 173.254C930.301 171.824 930.125 170.79 929.773 170.15C929.421 169.499 928.882 169.174 928.157 169.174C927.442 169.174 926.903 169.499 926.541 170.15C926.189 170.79 926.013 171.824 926.013 173.254C926.013 174.683 926.189 175.734 926.541 176.406C926.903 177.067 927.442 177.398 928.157 177.398Z" fill="#EB242A"/>
<path d="M938.151 179.094C936.732 179.094 935.633 178.603 934.855 177.622C934.087 176.64 933.703 175.264 933.703 173.494C933.703 172.214 933.9 171.131 934.295 170.246C934.689 169.35 935.249 168.667 935.975 168.198C936.711 167.728 937.591 167.494 938.615 167.494C939.223 167.494 939.825 167.606 940.423 167.83C941.02 168.043 941.532 168.352 941.959 168.758L941.271 170.294C940.876 169.931 940.449 169.664 939.991 169.494C939.532 169.312 939.068 169.222 938.599 169.222C937.639 169.222 936.908 169.547 936.407 170.198C935.905 170.848 935.655 171.819 935.655 173.11V174.31H935.463C935.548 173.766 935.729 173.302 936.007 172.918C936.284 172.523 936.641 172.224 937.079 172.022C937.516 171.808 938.001 171.702 938.535 171.702C939.196 171.702 939.783 171.856 940.295 172.166C940.807 172.475 941.207 172.902 941.495 173.446C941.793 173.99 941.943 174.614 941.943 175.318C941.943 176.043 941.777 176.694 941.447 177.27C941.127 177.835 940.684 178.283 940.119 178.614C939.553 178.934 938.897 179.094 938.151 179.094ZM938.039 177.462C938.433 177.462 938.78 177.376 939.079 177.206C939.377 177.035 939.607 176.795 939.767 176.486C939.937 176.166 940.023 175.803 940.023 175.398C940.023 174.982 939.937 174.619 939.767 174.31C939.607 174 939.377 173.76 939.079 173.59C938.78 173.408 938.433 173.318 938.039 173.318C937.644 173.318 937.297 173.408 936.999 173.59C936.7 173.76 936.465 174 936.295 174.31C936.124 174.619 936.039 174.982 936.039 175.398C936.039 175.803 936.124 176.166 936.295 176.486C936.465 176.795 936.7 177.035 936.999 177.206C937.297 177.376 937.644 177.462 938.039 177.462Z" fill="#EB242A"/>
<path d="M947.344 179.094C946.022 179.094 944.987 178.811 944.24 178.246C943.504 177.68 943.136 176.896 943.136 175.894C943.136 175.104 943.376 174.448 943.856 173.926C944.336 173.403 944.96 173.094 945.728 172.998V173.334C945.035 173.184 944.475 172.859 944.048 172.358C943.632 171.856 943.424 171.248 943.424 170.534C943.424 169.584 943.771 168.843 944.464 168.31C945.168 167.766 946.128 167.494 947.344 167.494C948.571 167.494 949.531 167.766 950.224 168.31C950.928 168.843 951.28 169.584 951.28 170.534C951.28 171.248 951.078 171.862 950.672 172.374C950.278 172.886 949.739 173.2 949.056 173.318V172.998C949.814 173.104 950.422 173.419 950.88 173.942C951.339 174.454 951.568 175.104 951.568 175.894C951.568 176.896 951.195 177.68 950.448 178.246C949.712 178.811 948.678 179.094 947.344 179.094ZM947.344 177.494C948.123 177.494 948.704 177.35 949.088 177.062C949.472 176.763 949.664 176.326 949.664 175.75C949.664 175.174 949.472 174.742 949.088 174.454C948.704 174.166 948.123 174.022 947.344 174.022C946.576 174.022 945.995 174.166 945.6 174.454C945.216 174.742 945.024 175.174 945.024 175.75C945.024 176.326 945.216 176.763 945.6 177.062C945.995 177.35 946.576 177.494 947.344 177.494ZM947.344 172.422C948.006 172.422 948.507 172.272 948.848 171.974C949.2 171.675 949.376 171.264 949.376 170.742C949.376 170.23 949.2 169.83 948.848 169.542C948.507 169.243 948.006 169.094 947.344 169.094C946.694 169.094 946.192 169.243 945.84 169.542C945.499 169.83 945.328 170.23 945.328 170.742C945.328 171.264 945.499 171.675 945.84 171.974C946.192 172.272 946.694 172.422 947.344 172.422Z" fill="#EB242A"/>
<path d="M961.329 179.094C960.006 179.094 958.987 178.592 958.273 177.59C957.558 176.576 957.201 175.136 957.201 173.27C957.201 171.382 957.558 169.947 958.273 168.966C958.987 167.984 960.006 167.494 961.329 167.494C962.662 167.494 963.681 167.984 964.385 168.966C965.099 169.947 965.457 171.376 965.457 173.254C965.457 175.131 965.099 176.576 964.385 177.59C963.681 178.592 962.662 179.094 961.329 179.094ZM961.329 177.398C962.054 177.398 962.593 177.067 962.945 176.406C963.297 175.734 963.473 174.683 963.473 173.254C963.473 171.824 963.297 170.79 962.945 170.15C962.593 169.499 962.054 169.174 961.329 169.174C960.614 169.174 960.075 169.499 959.713 170.15C959.361 170.79 959.185 171.824 959.185 173.254C959.185 174.683 959.361 175.734 959.713 176.406C960.075 177.067 960.614 177.398 961.329 177.398Z" fill="#EB242A"/>
<path d="M970.746 179.094C969.968 179.094 969.221 178.982 968.506 178.758C967.792 178.523 967.205 178.203 966.746 177.798L967.418 176.246C967.92 176.63 968.437 176.912 968.97 177.094C969.514 177.275 970.085 177.366 970.682 177.366C971.408 177.366 971.957 177.222 972.33 176.934C972.704 176.646 972.89 176.224 972.89 175.67C972.89 175.136 972.704 174.736 972.33 174.47C971.968 174.192 971.434 174.054 970.73 174.054H968.906V172.406H970.554C971.162 172.406 971.648 172.256 972.01 171.958C972.373 171.659 972.554 171.248 972.554 170.726C972.554 170.235 972.384 169.862 972.042 169.606C971.712 169.35 971.232 169.222 970.602 169.222C969.472 169.222 968.474 169.606 967.61 170.374L966.938 168.838C967.397 168.411 967.962 168.08 968.634 167.846C969.317 167.611 970.032 167.494 970.778 167.494C971.952 167.494 972.869 167.76 973.53 168.294C974.202 168.816 974.538 169.547 974.538 170.486C974.538 171.158 974.346 171.739 973.962 172.23C973.589 172.71 973.072 173.03 972.41 173.19V172.998C973.189 173.126 973.792 173.446 974.218 173.958C974.656 174.459 974.874 175.088 974.874 175.846C974.874 176.848 974.506 177.643 973.77 178.23C973.034 178.806 972.026 179.094 970.746 179.094Z" fill="#EB242A"/>
<path d="M981.412 178.934V176.726H976.372V175.286L981.732 167.654H983.396V175.158H985.012V176.726H983.396V178.934H981.412ZM981.412 175.158V170.086H981.796L977.908 175.638V175.158H981.412Z" fill="#EB242A"/>
<path d="M994.325 179.094C993.546 179.094 992.799 178.982 992.085 178.758C991.37 178.523 990.783 178.203 990.325 177.798L990.997 176.246C991.498 176.63 992.015 176.912 992.549 177.094C993.093 177.275 993.663 177.366 994.261 177.366C994.986 177.366 995.535 177.222 995.909 176.934C996.282 176.646 996.469 176.224 996.469 175.67C996.469 175.136 996.282 174.736 995.909 174.47C995.546 174.192 995.013 174.054 994.309 174.054H992.485V172.406H994.133C994.741 172.406 995.226 172.256 995.589 171.958C995.951 171.659 996.133 171.248 996.133 170.726C996.133 170.235 995.962 169.862 995.621 169.606C995.29 169.35 994.81 169.222 994.181 169.222C993.05 169.222 992.053 169.606 991.189 170.374L990.517 168.838C990.975 168.411 991.541 168.08 992.213 167.846C992.895 167.611 993.61 167.494 994.357 167.494C995.53 167.494 996.447 167.76 997.109 168.294C997.781 168.816 998.117 169.547 998.117 170.486C998.117 171.158 997.925 171.739 997.541 172.23C997.167 172.71 996.65 173.03 995.989 173.19V172.998C996.767 173.126 997.37 173.446 997.797 173.958C998.234 174.459 998.453 175.088 998.453 175.846C998.453 176.848 998.085 177.643 997.349 178.23C996.613 178.806 995.605 179.094 994.325 179.094Z" fill="#EB242A"/>
<path d="M1004.99 178.934V176.726H999.95V175.286L1005.31 167.654H1006.97V175.158H1008.59V176.726H1006.97V178.934H1004.99ZM1004.99 175.158V170.086H1005.37L1001.49 175.638V175.158H1004.99Z" fill="#EB242A"/>
<path d="M1013.69 179.094C1012.37 179.094 1011.35 178.592 1010.63 177.59C1009.92 176.576 1009.56 175.136 1009.56 173.27C1009.56 171.382 1009.92 169.947 1010.63 168.966C1011.35 167.984 1012.37 167.494 1013.69 167.494C1015.02 167.494 1016.04 167.984 1016.74 168.966C1017.46 169.947 1017.82 171.376 1017.82 173.254C1017.82 175.131 1017.46 176.576 1016.74 177.59C1016.04 178.592 1015.02 179.094 1013.69 179.094ZM1013.69 177.398C1014.41 177.398 1014.95 177.067 1015.3 176.406C1015.66 175.734 1015.83 174.683 1015.83 173.254C1015.83 171.824 1015.66 170.79 1015.3 170.15C1014.95 169.499 1014.41 169.174 1013.69 169.174C1012.97 169.174 1012.43 169.499 1012.07 170.15C1011.72 170.79 1011.54 171.824 1011.54 173.254C1011.54 174.683 1011.72 175.734 1012.07 176.406C1012.43 177.067 1012.97 177.398 1013.69 177.398Z" fill="#EB242A"/>
<path d="M882.357 170.97C882.357 170.788 882.423 170.611 882.543 170.473C882.663 170.336 882.828 170.246 883.009 170.221L883.111 170.214L891.782 170.215L888.795 167.225C888.667 167.097 888.589 166.927 888.575 166.746C888.561 166.566 888.613 166.386 888.72 166.24L888.793 166.155C888.92 166.027 889.09 165.949 889.27 165.936C889.451 165.922 889.63 165.974 889.775 166.082L889.86 166.154L894.135 170.432L894.198 170.503L894.257 170.595L894.278 170.632L894.317 170.723L894.347 170.844L894.355 170.915L894.357 170.975C894.357 171.026 894.351 171.077 894.341 171.127L894.318 171.209C894.287 171.305 894.237 171.393 894.171 171.468L889.861 175.793C889.726 175.929 889.546 176.009 889.355 176.016C889.165 176.023 888.978 175.958 888.834 175.834C888.689 175.709 888.597 175.534 888.576 175.344C888.555 175.154 888.606 174.963 888.72 174.809L888.794 174.725L891.778 171.728L883.111 171.728C882.911 171.728 882.719 171.648 882.578 171.506C882.436 171.364 882.357 171.171 882.357 170.97Z" fill="#EB242A"/>
<path fill-rule="evenodd" clip-rule="evenodd" d="M882.732 170.97C882.732 171.072 882.772 171.17 882.843 171.241C882.915 171.313 883.011 171.353 883.111 171.353L892.681 171.353L889.069 174.98L889.015 175.042C888.962 175.118 888.938 175.211 888.949 175.303C888.959 175.399 889.006 175.487 889.079 175.55C889.151 175.612 889.245 175.645 889.34 175.641C889.436 175.638 889.527 175.598 889.595 175.529L889.595 175.529L893.895 171.214C893.923 171.18 893.945 171.141 893.959 171.1L893.976 171.039C893.98 171.02 893.982 171 893.982 170.98L893.981 170.942L893.977 170.911L893.96 170.842L893.942 170.799L893.937 170.791L893.899 170.73L893.862 170.69L889.605 166.43L889.543 166.377C889.472 166.327 889.385 166.303 889.298 166.31C889.212 166.316 889.13 166.352 889.067 166.412L889.016 166.472C888.966 166.544 888.942 166.631 888.949 166.718C888.956 166.81 888.995 166.895 889.06 166.96L892.687 170.59L883.124 170.589L883.049 170.594C882.963 170.609 882.884 170.653 882.826 170.72C882.765 170.789 882.732 170.878 882.732 170.97ZM882.312 171.771C882.1 171.558 881.982 171.27 881.982 170.97C881.982 170.697 882.081 170.433 882.26 170.227C882.439 170.021 882.687 169.887 882.958 169.85L882.97 169.848L883.098 169.839L890.877 169.84L888.53 167.49C888.53 167.49 888.53 167.491 888.53 167.49C888.338 167.299 888.221 167.045 888.201 166.775C888.18 166.505 888.258 166.236 888.418 166.018L888.426 166.007L888.517 165.901L888.527 165.891C888.718 165.699 888.972 165.582 889.242 165.562C889.513 165.541 889.781 165.619 889.999 165.781L890.01 165.789L890.115 165.879L894.407 170.174L894.497 170.275L894.577 170.4L894.615 170.464L894.674 170.605L894.717 170.777L894.729 170.887L894.732 170.976C894.732 171.053 894.724 171.13 894.708 171.205L894.705 171.216L894.677 171.318L894.674 171.325C894.628 171.469 894.553 171.601 894.453 171.715L894.445 171.724L890.127 176.057C890.127 176.057 890.127 176.057 890.127 176.057C889.926 176.26 889.655 176.38 889.37 176.391C889.084 176.402 888.805 176.304 888.589 176.118C888.372 175.931 888.235 175.669 888.203 175.385C888.172 175.101 888.249 174.816 888.419 174.586L888.428 174.575L888.519 174.469L890.875 172.103L883.111 172.103C882.811 172.103 882.524 171.983 882.312 171.771Z" fill="#EB242A"/>
<path fill-rule="evenodd" clip-rule="evenodd" d="M881.857 149.934C869.431 149.934 859.357 160.007 859.357 172.434C859.357 184.86 869.431 194.934 881.857 194.934C894.283 194.934 904.357 184.86 904.357 172.434C904.357 160.007 894.283 149.934 881.857 149.934ZM857.357 172.434C857.357 158.903 868.326 147.934 881.857 147.934C895.388 147.934 906.357 158.903 906.357 172.434C906.357 185.965 895.388 196.934 881.857 196.934C868.326 196.934 857.357 185.965 857.357 172.434Z" fill="#EB242A"/>
</g>
<path opacity="0.1" d="M1015.68 891.693C996.215 902.944 964.679 902.944 945.298 891.693C925.835 880.442 925.835 862.293 945.298 851.042C964.761 839.791 996.297 839.791 1015.68 851.042C1035.14 862.293 1035.14 880.442 1015.68 891.693Z" fill="black"/>
<path d="M965.502 691.344C965.502 688.798 965.83 686.417 966.323 684.363C955.647 681.489 947.763 688.141 947.763 701.527C947.763 717.459 958.932 736.758 972.728 744.724C984.308 751.376 993.998 747.927 996.791 737.251C994.738 736.676 992.602 735.773 990.385 734.541C976.67 726.575 965.502 707.276 965.502 691.344Z" fill="url(#paint0_linear_2301_2)"/>
<path d="M990.384 647.982C978.148 640.92 966.979 640.263 958.438 644.862H958.356C957.617 645.272 956.878 645.765 956.138 646.258L944.559 653.32C952.525 650.692 962.216 652.006 972.727 658.084C999.418 673.523 1021.1 713.517 1021.1 747.434C1021.1 781.351 972.727 832.103 972.727 832.103L990.384 821.92C990.384 821.92 1038.75 771.085 1038.75 737.251C1038.84 703.416 1017.16 663.422 990.384 647.982Z" fill="url(#paint1_linear_2301_2)"/>
<path d="M924.357 691.59C924.357 725.507 972.728 832.186 972.728 832.186C972.728 832.186 1021.1 781.351 1021.1 747.516C1021.1 713.599 999.418 673.605 972.728 658.166C962.216 652.089 952.525 650.775 944.559 653.403C932.323 657.427 924.357 671.06 924.357 691.59ZM972.728 744.724C958.931 736.758 947.844 717.459 947.844 701.527C947.844 688.223 955.728 681.489 966.404 684.364C968.457 684.938 970.592 685.842 972.81 687.074C986.607 695.04 997.775 714.339 997.775 730.271C997.775 732.816 997.447 735.198 996.954 737.251C993.998 747.927 984.307 751.376 972.728 744.724Z" fill="url(#paint2_linear_2301_2)"/>
<path d="M902.857 1035.93H1024.86L247.814 589.774L192.759 621.51L902.857 1035.93Z" fill="url(#paint3_linear_2301_2)"/>
<path d="M213.089 309.634C170.703 322.602 148.651 294.086 117.057 303.634C105.875 307.029 17.2113 326.689 10.1375 284.384C8.85791 288.842 8.37457 293.15 8.89902 296.972C15.1886 340.139 104.739 320.208 115.982 316.781C147.575 307.232 169.628 335.749 212.014 322.781C234.169 316.023 239.943 302.819 237.516 290.775C234.587 298.404 227.218 305.311 213.089 309.634Z" fill="#D1D1D1"/>
<path d="M216.133 267.65C195.644 260.65 218.85 223.571 171.098 213.207C123.345 202.844 112.905 272.704 74.6415 254.725C42.9148 239.811 16.3298 264.021 10.0492 285.614C17.1116 327.785 105.592 308.174 116.802 304.804C148.347 295.286 170.365 323.712 212.685 310.785C226.746 306.462 234.149 299.591 237.103 292.047C234.901 281.023 225.951 271.012 216.133 267.65Z" fill="#FEFEFE"/>
<path d="M1112.14 775.085L830.756 937.492L878.435 964.982L1159.82 802.575L1112.14 775.085Z" fill="#FEFEFE"/>
<path opacity="0.1" d="M777.562 534.23L619.104 442.746L777.562 351.261L936.096 442.746L777.562 534.23Z" fill="black"/>
<path d="M882.907 446.844L775.107 509.051V407.658L882.907 345.451V446.844Z" fill="#B6B6B6"/>
<path d="M775.105 509.051L667.306 446.844V345.451L775.105 407.658V509.051Z" fill="#D1D1D1"/>
<path d="M775.105 407.658L667.306 345.451L775.105 283.17L882.905 345.451L775.105 407.658Z" fill="#FEFEFE"/>
<path d="M859.063 344.929L775.103 393.428V110.258L859.063 61.7588V344.929Z" fill="#B6B6B6"/>
<path d="M775.105 393.428L691.07 344.929V61.7588L775.105 110.258V393.428Z" fill="#D1D1D1"/>
<path d="M775.105 110.257L691.07 61.7588L775.105 13.26L859.065 61.7588L775.105 110.257Z" fill="#FEFEFE"/>
<path d="M828.896 62.2065L775.107 93.2725V31.066L828.896 0V62.2065Z" fill="#B8B8B8"/>
<path d="M775.108 93.2725L721.245 62.2065V0L775.108 31.066V93.2725Z" fill="#D1D1D1"/>
<path d="M775.105 473.216L667.306 411.01V413.691L775.105 475.898L882.905 413.691V411.01L775.105 473.216Z" fill="#7E7E7E"/>
<path d="M775.105 440.809L667.306 378.528V381.21L775.105 443.491L882.905 381.21V378.528L775.105 440.809Z" fill="#7E7E7E"/>
<path d="M706.268 118.527L701.5 115.771V93.7935L706.268 96.5499V118.527Z" fill="white"/>
<path d="M719.753 126.35L714.985 123.593V101.616L719.753 104.372V126.35Z" fill="white"/>
<path d="M733.31 134.097L728.542 131.341V109.364L733.31 112.12V134.097Z" fill="white"/>
<path d="M746.795 141.92L742.027 139.163V117.186L746.795 119.942V141.92Z" fill="white"/>
<path d="M760.28 149.668L755.512 146.911V124.934L760.28 127.691V149.668Z" fill="white"/>
<path d="M706.268 169.932L701.5 167.175V145.198L706.268 147.954V169.932Z" fill="white"/>
<path d="M719.753 177.68L714.985 174.923V152.946L719.753 155.702V177.68Z" fill="white"/>
<path d="M733.31 185.502L728.542 182.745V160.768L733.31 163.525V185.502Z" fill="white"/>
<path d="M746.795 193.25L742.027 190.494V168.516L746.795 171.273V193.25Z" fill="white"/>
<path d="M760.28 201.072L755.512 198.316V176.339L760.28 179.095V201.072Z" fill="white"/>
<path d="M706.268 221.261L701.5 218.505V196.528L706.268 199.284V221.261Z" fill="white"/>
<path d="M719.753 229.084L714.985 226.328V204.351L719.753 207.107V229.084Z" fill="white"/>
<path d="M733.31 236.831L728.542 234.075V212.098L733.31 214.854V236.831Z" fill="white"/>
<path d="M746.795 244.654L742.027 241.898V219.92L746.795 222.677V244.654Z" fill="white"/>
<path d="M760.28 252.402L755.512 249.72V227.669L760.28 230.425V252.402Z" fill="white"/>
<path d="M706.268 272.665L701.5 269.909V247.931L706.268 250.688V272.665Z" fill="white"/>
<path d="M719.753 280.413L714.985 277.657V255.679L719.753 258.436V280.413Z" fill="white"/>
<path d="M733.31 288.235L728.542 285.479V263.501L733.31 266.258V288.235Z" fill="white"/>
<path d="M746.795 295.983L742.027 293.301V271.25L746.795 274.006V295.983Z" fill="white"/>
<path d="M760.28 303.806L755.512 301.05V279.072L760.28 281.829V303.806Z" fill="white"/>
<path d="M706.268 323.994L701.5 321.238V299.261L706.268 302.017V323.994Z" fill="white"/>
<path d="M719.753 331.817L714.985 329.061V307.083L719.753 309.84V331.817Z" fill="white"/>
<path d="M733.31 339.564L728.542 336.882V314.831L733.31 317.587V339.564Z" fill="white"/>
<path d="M746.795 347.387L742.027 344.631V322.653L746.795 325.41V347.387Z" fill="white"/>
<path d="M760.28 355.209L755.512 352.453V330.475L760.28 333.232V355.209Z" fill="white"/>
<path d="M844.241 118.527L848.935 115.77V93.7932L844.241 96.5497V118.527Z" fill="white"/>
<path d="M830.684 126.349L835.452 123.593V101.616L830.684 104.372V126.349Z" fill="white"/>
<path d="M817.199 134.097L821.967 131.34V109.363L817.199 112.119V134.097Z" fill="white"/>
<path d="M803.714 141.92L808.482 139.163V117.186L803.714 119.942V141.92Z" fill="white"/>
<path d="M790.229 149.668L794.997 146.911V124.934L790.229 127.691V149.668Z" fill="white"/>
<path d="M844.241 169.931L848.935 167.174V145.197L844.241 147.954V169.931Z" fill="white"/>
<path d="M830.684 177.679L835.452 174.922V152.945L830.684 155.702V177.679Z" fill="white"/>
<path d="M817.199 185.501L821.967 182.744V160.767L817.199 163.524V185.501Z" fill="white"/>
<path d="M803.714 193.249L808.482 190.493V168.516L803.714 171.272V193.249Z" fill="white"/>
<path d="M790.229 201.072L794.997 198.315V176.338L790.229 179.095V201.072Z" fill="white"/>
<path d="M844.241 221.261L848.935 218.505V196.527L844.241 199.284V221.261Z" fill="white"/>
<path d="M830.684 229.084L835.452 226.327V204.35L830.684 207.107V229.084Z" fill="white"/>
<path d="M817.199 236.831L821.967 234.075V212.097L817.199 214.854V236.831Z" fill="white"/>
<path d="M803.714 244.654L808.482 241.897V219.92L803.714 222.677V244.654Z" fill="white"/>
<path d="M790.229 252.402L794.997 249.72V227.668L790.229 230.425V252.402Z" fill="white"/>
<path d="M844.241 272.665L848.935 269.908V247.931L844.241 250.688V272.665Z" fill="white"/>
<path d="M830.684 280.413L835.452 277.656V255.679L830.684 258.436V280.413Z" fill="white"/>
<path d="M817.199 288.235L821.967 285.478V263.501L817.199 266.258V288.235Z" fill="white"/>
<path d="M803.714 295.983L808.482 293.301V271.249L803.714 274.006V295.983Z" fill="white"/>
<path d="M790.229 303.806L794.997 301.049V279.072L790.229 281.829V303.806Z" fill="white"/>
<path d="M844.241 323.994L848.935 321.238V299.26L844.241 302.017V323.994Z" fill="white"/>
<path d="M830.684 331.817L835.452 329.06V307.083L830.684 309.84V331.817Z" fill="white"/>
<path d="M817.199 339.564L821.967 336.882V314.83L817.199 317.587V339.564Z" fill="white"/>
<path d="M803.714 347.387L808.482 344.63V322.653L803.714 325.41V347.387Z" fill="white"/>
<path d="M790.229 355.209L794.997 352.452V330.475L790.229 333.231V355.209Z" fill="white"/>
<path opacity="0.1" d="M613.741 602.62L716.848 543.021L583.048 465.841L479.941 525.365L613.741 602.62Z" fill="black"/>
<path d="M612.849 322.058L685.262 280.19L591.244 225.955L518.831 267.749L612.849 322.058Z" fill="#FEFEFE"/>
<path d="M591.916 236.683L669.543 281.457L672.002 280.041L591.916 233.852L532.913 267.525L535.446 268.941L591.916 236.683Z" fill="url(#paint4_linear_2301_2)"/>
<path d="M591.916 236.683L669.543 281.457L672.002 280.041L591.916 233.852L532.913 267.525L535.446 268.941L591.916 236.683Z" fill="#7E7E7E"/>
<path d="M535.444 268.941L591.914 236.683L669.468 281.457L613.296 313.938L535.444 268.941Z" fill="#D1D1D1"/>
<path d="M612.849 581.985L518.831 527.675V267.749L612.849 322.058V581.985Z" fill="#DEDEDE"/>
<path d="M685.263 540.117L612.85 581.985V322.059L685.263 280.19V540.117Z" fill="#B8B8B8"/>
<path d="M529.482 295.759L531.195 296.728V333.232L529.482 332.338V295.759Z" fill="#7E7E7E"/>
<path d="M546.766 305.742V342.247L531.195 333.232V296.728L546.766 305.742Z" fill="white"/>
<path d="M575 349.026L561.962 356.625V338.596L575 330.998V349.026Z" fill="#B8B8B8"/>
<path d="M518.905 316.545L505.868 324.069L505.793 306.115L518.831 298.591L518.905 316.545Z" fill="#7E7E7E"/>
<path d="M561.964 356.625L504.004 323.175V305.147L561.964 338.597V356.625Z" fill="#D1D1D1"/>
<path d="M561.964 336.51L507.58 305.146L518.829 298.591V296.579L505.345 304.401L504.004 305.146L561.964 338.596L563.677 337.553L575.001 330.998L573.213 330.029L561.964 336.51Z" fill="white"/>
<path d="M529.482 351.188L531.195 352.156V388.661L529.482 387.767V351.188Z" fill="#7E7E7E"/>
<path d="M546.766 361.171V397.675L531.195 388.661V352.156L546.766 361.171Z" fill="white"/>
<path d="M575 404.454L561.962 412.053V394.024L575 386.425V404.454Z" fill="#B8B8B8"/>
<path d="M518.905 371.973L505.868 379.497L505.793 361.617L518.831 354.018L518.905 371.973Z" fill="#7E7E7E"/>
<path d="M561.964 412.053L504.004 378.603V360.574L561.964 394.024V412.053Z" fill="#D1D1D1"/>
<path d="M561.964 391.938L507.58 360.574L518.829 354.018V352.007L505.345 359.829L504.004 360.574L561.964 394.024L563.677 392.981L575.001 386.425L573.213 385.457L561.964 391.938Z" fill="white"/>
<path d="M529.482 406.614L531.195 407.583V444.087L529.482 443.193V406.614Z" fill="#7E7E7E"/>
<path d="M546.766 416.597V453.176L531.195 444.087V407.583L546.766 416.597Z" fill="white"/>
<path d="M575 459.881L561.962 467.479V449.451L575 441.852V459.881Z" fill="#B8B8B8"/>
<path d="M518.905 427.399L505.868 434.924L505.793 417.044L518.831 409.445L518.905 427.399Z" fill="#7E7E7E"/>
<path d="M561.964 467.48L504.004 434.03V416.001L561.964 449.451V467.48Z" fill="#D1D1D1"/>
<path d="M561.964 447.365L507.58 416.001L518.829 409.445V407.433L505.345 415.256L504.004 416.001L561.964 449.451L563.677 448.408L575.001 441.926L573.213 440.883L561.964 447.365Z" fill="white"/>
<path d="M529.482 462.041L531.196 463.009V499.514L529.482 498.62V462.041Z" fill="#7E7E7E"/>
<path d="M546.766 472.024V508.603L531.196 499.514V463.009L546.766 472.024Z" fill="white"/>
<path d="M575 515.382L561.963 522.906V504.878L575 497.353V515.382Z" fill="#B8B8B8"/>
<path d="M518.905 482.826L505.868 490.351L505.794 472.471L518.831 464.872L518.905 482.826Z" fill="#7E7E7E"/>
<path d="M561.964 522.907L504.004 489.457V471.428L561.964 504.878V522.907Z" fill="#D1D1D1"/>
<path d="M561.964 502.866L507.58 471.428L518.83 464.872V462.86L505.345 470.683L504.004 471.428L561.964 504.878L563.678 503.835L575.002 497.353L573.214 496.31L561.964 502.866Z" fill="white"/>
<path d="M635.644 324.443L634.527 325.114V349.549L635.644 348.879V324.443Z" fill="#7E7E7E"/>
<path d="M624.097 331.148V355.583L634.527 349.549V325.113L624.097 331.148Z" fill="white"/>
<path d="M655.313 313.119L654.195 313.79V338.225L655.313 337.555V313.119Z" fill="#7E7E7E"/>
<path d="M643.766 319.824V344.26L654.196 338.225V313.79L643.766 319.824Z" fill="white"/>
<path d="M674.978 301.795L673.86 302.391V326.901L674.978 326.231V301.795Z" fill="#7E7E7E"/>
<path d="M663.431 308.425V332.935L673.861 326.901V302.391L663.431 308.425Z" fill="white"/>
<path d="M635.644 379.871L634.527 380.467V404.977L635.644 404.306V379.871Z" fill="#7E7E7E"/>
<path d="M624.097 386.501V411.011L634.527 404.976V380.466L624.097 386.501Z" fill="white"/>
<path d="M655.313 368.547L654.195 369.143V393.653L655.313 392.982V368.547Z" fill="#7E7E7E"/>
<path d="M643.766 375.177V399.612L654.196 393.652V369.142L643.766 375.177Z" fill="white"/>
<path d="M674.978 357.148L673.86 357.818V382.254L674.978 381.658V357.148Z" fill="#7E7E7E"/>
<path d="M663.431 363.853V388.288L673.861 382.254V357.818L663.431 363.853Z" fill="white"/>
<path d="M635.644 435.223L634.527 435.894V460.329L635.644 459.733V435.223Z" fill="#7E7E7E"/>
<path d="M624.097 441.928V466.363L634.527 460.329V435.893L624.097 441.928Z" fill="white"/>
<path d="M655.313 423.899L654.195 424.569V449.005L655.313 448.409V423.899Z" fill="#7E7E7E"/>
<path d="M643.766 430.604V455.039L654.196 449.005V424.569L643.766 430.604Z" fill="white"/>
<path d="M674.978 412.575L673.86 413.246V437.681L674.978 437.011V412.575Z" fill="#7E7E7E"/>
<path d="M663.431 419.28V443.715L673.861 437.681V413.245L663.431 419.28Z" fill="white"/>
<path d="M635.644 490.65L634.527 491.32V515.756L635.644 515.085V490.65Z" fill="#7E7E7E"/>
<path d="M624.097 497.354V521.79L634.527 515.755V491.32L624.097 497.354Z" fill="white"/>
<path d="M655.313 479.326L654.195 479.922V504.432L655.313 503.761V479.326Z" fill="#7E7E7E"/>
<path d="M643.766 485.956V510.466L654.196 504.431V479.921L643.766 485.956Z" fill="white"/>
<path d="M674.978 468.002L673.86 468.598V493.108L674.978 492.437V468.002Z" fill="#7E7E7E"/>
<path d="M663.431 474.632V499.142L673.861 493.107V468.597L663.431 474.632Z" fill="white"/>
<path opacity="0.1" d="M924.328 612.23L824.797 554.717C818.316 550.992 819.135 544.436 826.585 540.116L922.465 484.763C929.99 480.442 941.313 479.995 947.795 483.72L1047.33 541.159C1053.81 544.883 1052.99 551.439 1045.54 555.76L949.657 611.113C942.133 615.508 930.809 615.955 924.328 612.23Z" fill="black"/>
<path d="M927.978 252.774L859.588 213.29C855.118 210.682 855.714 206.212 860.854 203.233L926.711 165.238C931.852 162.258 939.674 161.96 944.144 164.493L1012.53 203.977C1017 206.585 1016.41 211.055 1011.27 214.035L945.411 252.029C940.27 255.009 932.448 255.307 927.978 252.774Z" fill="#FEFEFE"/>
<path d="M879.108 209.639L929.023 180.808C932.897 178.573 938.856 178.275 942.209 180.286L993.986 210.16C994.433 210.458 994.805 210.682 995.103 211.054C996.891 209.043 996.593 206.659 993.986 205.095L942.209 175.22C938.856 173.284 932.897 173.507 929.023 175.742L879.108 204.573C875.756 206.51 874.936 209.341 877.022 211.352C877.544 210.682 878.214 210.086 879.108 209.639Z" fill="#7E7E7E"/>
<path d="M878.141 212.172L929.918 242.046C933.27 243.983 939.23 243.76 943.104 241.525L993.018 212.694C993.912 212.172 994.583 211.576 995.104 210.98C994.806 210.682 994.434 210.384 993.987 210.086L942.21 180.212C938.857 178.275 932.898 178.499 929.024 180.734L879.109 209.565C878.215 210.086 877.545 210.682 877.023 211.278C877.321 211.576 877.694 211.874 878.141 212.172Z" fill="#D1D1D1"/>
<path d="M1015.51 208.671C1015.36 210.534 1013.95 212.471 1011.27 214.035L945.409 252.029C942.727 253.594 939.375 254.413 936.097 254.488H936.022V499.813V591.744C939.3 591.67 942.727 590.85 945.409 589.286L1011.49 551.142C1013.72 549.876 1015.07 548.311 1015.51 546.672V544.139V208.671Z" fill="#B8B8B8"/>
<path d="M859.663 213.29C857.503 212.024 856.609 210.385 856.683 208.671H856.609V544.81V547.268C856.981 548.46 857.875 549.503 859.365 550.397L927.904 589.956C930.065 591.223 932.97 591.744 936.025 591.67V499.813V254.488H935.95C932.97 254.562 930.065 254.041 927.904 252.774L859.663 213.29Z" fill="#D1D1D1"/>
<path d="M945.412 301.422C939.601 304.774 933.343 304.998 927.979 302.167L856.609 260.969V262.906L927.979 304.104C932.449 306.711 940.197 306.339 945.412 303.359L1015.51 262.831V260.969L945.412 301.422Z" fill="#7E7E7E"/>
<path d="M945.412 352.081C939.601 355.433 933.343 355.657 927.979 352.826L856.609 311.628V313.565L927.979 354.763C932.449 357.37 940.197 356.998 945.412 354.018L1015.51 313.491V311.628L945.412 352.081Z" fill="#7E7E7E"/>
<path d="M945.412 402.74C939.601 406.092 933.343 406.316 927.979 403.485L856.609 362.287V364.224L927.979 405.422C932.449 408.029 940.197 407.657 945.412 404.677L1015.51 364.149V362.287L945.412 402.74Z" fill="#7E7E7E"/>
<path d="M945.412 453.399C939.601 456.752 933.343 456.975 927.979 454.144L856.609 412.947V414.884L927.979 456.081C932.449 458.689 940.197 458.316 945.412 455.336L1015.51 414.809V412.947L945.412 453.399Z" fill="#7E7E7E"/>
<path d="M945.412 504.058C939.601 507.41 933.343 507.634 927.979 504.803L856.609 463.605V465.542L927.979 506.74C932.449 509.347 940.197 508.975 945.412 505.995L1015.51 465.468V463.605L945.412 504.058Z" fill="#7E7E7E"/>
<path opacity="0.1" d="M1427.12 801.16L1169.06 672.351L1080.03 591.818L880.224 708.036L992.717 774.191L1074.59 726.884L1317.16 866.942L1427.12 801.16Z" fill="black"/>
<path d="M1074.96 708.334L995.548 754.151V662.517L1074.96 616.7V708.334Z" fill="#B8B8B8"/>
<path d="M995.549 754.151L916.208 708.334V616.7L995.549 662.517V754.151Z" fill="#D1D1D1"/>
<path d="M1313.14 845.859L1074.96 708.334V616.7L1313.14 754.151V845.859Z" fill="#D1D1D1"/>
<path d="M1313.14 754.151L1074.96 616.701L1154.38 570.81L1392.48 708.334L1313.14 754.151Z" fill="#FEFEFE"/>
<path d="M1392.48 799.968L1313.14 845.859V754.151L1392.48 708.334V799.968Z" fill="#B8B8B8"/>
<path d="M995.549 662.517L916.208 616.701L1074.96 524.993L1154.38 570.809L995.549 662.517Z" fill="#FEFEFE"/>
<path d="M1312.99 786.112L1378.47 749.756V737.836L1312.99 774.192V786.112Z" fill="#FEFEFE"/>
<path d="M1375.57 739.475V751.395L1312.99 786.112V789.464L1378.47 753.109V749.756V737.836L1375.57 739.475Z" fill="#7E7E7E"/>
<path d="M1312.99 774.192L1091.65 646.426V658.346L1312.99 786.111V774.192Z" fill="#FEFEFE"/>
<path d="M1094.48 659.985V648.065L1091.65 646.426V658.346V661.698L1312.99 789.464V786.111L1094.48 659.985Z" fill="#7E7E7E"/>
<path d="M1312.99 820.306L1378.47 783.951V772.031L1312.99 808.461V820.306Z" fill="#FEFEFE"/>
<path d="M1375.57 773.67V785.59L1312.99 820.306V823.659L1378.47 787.303V783.951V772.031L1375.57 773.67Z" fill="#7E7E7E"/>
<path d="M1312.99 808.461L1091.65 680.621V692.541L1312.99 820.306V808.461Z" fill="#FEFEFE"/>
<path d="M1094.48 694.18V682.26L1091.65 680.621V692.541V695.893L1312.99 823.659V820.306L1094.48 694.18Z" fill="#7E7E7E"/>
<path d="M1051.87 721.67L1020.06 739.996V672.649L1051.87 654.323V721.67Z" fill="#FEFEFE"/>
<path d="M1046.8 657.228V724.575L1051.87 721.67V654.323L1046.8 657.228Z" fill="#7E7E7E"/>
<path d="M928.35 650.971V686.73L932.373 689.039V653.28L928.35 650.971Z" fill="#7E7E7E"/>
<path d="M981.319 681.516L932.373 653.281V689.04L981.319 717.275V681.516Z" fill="#FEFEFE"/>
<path d="M995.549 592.042L962.918 610.964L995.549 629.813L1028.25 610.964L995.549 592.042Z" fill="#D1D1D1"/>
<path d="M1028.25 610.964V615.062L995.548 633.91V629.813L1028.25 610.964Z" fill="#B8B8B8"/>
<path d="M962.918 610.964V615.062L995.549 633.91V629.813L962.918 610.964Z" fill="#DFDFDF"/>
<path d="M1156.39 585.187L1101.71 616.7L1311.94 738.059L1365.73 706.024L1156.39 585.187Z" fill="#D1D1D1"/>
<path d="M1360.67 708.036L1365.73 706.024L1156.39 585.187L1101.71 616.7L1105.95 619.159L1156.39 590.03L1360.67 708.036Z" fill="#7E7E7E"/>
<path d="M991.675 868.204C985.491 864.628 975.508 864.628 969.4 868.204C963.812 871.482 963.365 876.548 967.984 880.049L839.992 952.419L511.934 756.91L509.625 760.933L838.875 957.038L839.992 957.709L973.125 882.433C979.084 884.296 986.609 883.923 991.675 881.018C997.784 877.516 997.784 871.705 991.675 868.204Z" fill="#F40494"/>
<path opacity="0.1" d="M769.293 879.16C769.293 879.16 770.187 921.475 706.714 931.83C643.241 942.186 503.035 851.819 490.444 844.294C477.854 836.77 465.636 807.045 467.126 788.495C468.691 769.944 495.138 784.248 495.138 784.248L769.293 879.16Z" fill="black"/>
<path d="M693.08 894.655L698.519 914.845C698.742 916.707 698.444 918.421 702.318 917.825C710.736 916.484 732.788 912.237 748.954 900.913C756.33 895.698 761.023 891.899 764.003 889.217C767.356 886.163 769.293 881.842 769.293 877.223V853.458L705.075 877.223C704.032 877.595 703.212 878.415 702.765 879.458L695.092 890.856C694.719 891.452 693.006 893.91 693.08 894.655Z" fill="url(#paint5_linear_2301_2)"/>
<path d="M609.718 875.658L649.426 864.707L608.377 844.22L607.706 870.965L609.718 875.658Z" fill="#950B63"/>
<path d="M653.895 890.408C653.895 878.488 645.551 863.961 635.196 858.001C629.981 855.021 625.288 854.723 621.935 856.735L617.614 859.268L619.03 859.491C617.465 861.726 616.571 864.855 616.571 868.803C616.571 880.723 624.915 895.251 635.271 901.21C638.474 903.073 641.454 903.818 644.061 903.743L643.167 905.606L648.382 902.626C648.457 902.626 648.531 902.551 648.606 902.477L648.829 902.328C651.958 900.242 653.895 896.145 653.895 890.408Z" fill="#191919"/>
<path d="M648.903 893.388C648.903 905.308 640.559 910.15 630.203 904.19C619.848 898.23 611.504 883.703 611.504 871.783C611.504 859.863 619.848 855.021 630.203 860.981C640.484 866.941 648.903 881.468 648.903 893.388Z" fill="#323232"/>
<path d="M641.376 889.067C641.376 896.219 636.385 899.124 630.201 895.549C624.018 891.973 619.027 883.256 619.027 876.104C619.027 868.952 624.018 866.047 630.201 869.623C636.385 873.199 641.376 881.915 641.376 889.067Z" fill="#EEEFEF"/>
<path d="M632.736 884.075C632.736 885.714 631.544 886.385 630.128 885.565C628.713 884.746 627.521 882.734 627.521 881.095C627.521 879.456 628.638 878.786 630.128 879.605C631.618 880.425 632.736 882.436 632.736 884.075Z" fill="#323232"/>
<path d="M484.186 803.618L487.91 803.767L500.501 790.283L487.314 788.42L483.143 801.904L484.186 803.618Z" fill="#950B63"/>
<path d="M527.843 825.222C527.843 813.302 519.5 798.775 509.144 792.815C503.929 789.835 499.236 789.537 495.883 791.548L491.563 794.081L492.978 794.305C491.414 796.54 490.52 799.669 490.52 803.617C490.52 815.537 498.863 830.064 509.219 836.024C512.422 837.887 515.402 838.632 518.01 838.557L517.116 840.42L522.331 837.365C522.405 837.365 522.48 837.291 522.554 837.216L522.778 837.067C525.906 835.056 527.843 830.958 527.843 825.222Z" fill="#191919"/>
<path d="M522.778 828.128C522.778 840.048 514.434 844.89 504.079 838.93C493.723 832.97 485.379 818.443 485.379 806.523C485.379 794.603 493.723 789.761 504.079 795.721C514.434 801.681 522.778 816.208 522.778 828.128Z" fill="#323232"/>
<path d="M515.328 823.807C515.328 830.959 510.337 833.865 504.153 830.289C497.97 826.713 492.979 817.996 492.979 810.845C492.979 803.693 497.97 800.787 504.153 804.363C510.337 807.939 515.328 816.655 515.328 823.807Z" fill="#EEEFEF"/>
<path d="M506.688 818.815C506.688 820.454 505.57 821.125 504.08 820.305C502.665 819.486 501.473 817.474 501.473 815.835C501.473 814.196 502.665 813.526 504.08 814.345C505.57 815.165 506.688 817.176 506.688 818.815Z" fill="#323232"/>
<path d="M472.415 755.417L541.699 711.537C544.754 709.6 548.106 708.706 551.533 709.898L568.742 715.932C568.742 715.932 608.003 711.984 639.665 727.927C671.327 743.87 690.622 769.125 695.092 773.818C699.562 778.512 717.963 799.669 717.963 799.669C717.963 799.669 767.356 835.652 769.293 853.085C769.293 853.308 769.293 853.457 769.144 853.606C766.537 856.139 738.525 882.81 699.19 893.314C697.327 893.836 695.39 893.538 693.751 892.569L631.992 856.363L470.553 769.423L472.415 755.417Z" fill="url(#paint6_linear_2301_2)"/>
<path d="M687.121 880.649C670.359 864.185 638.622 843.027 624.542 821.274C610.462 799.52 586.026 775.829 556.078 766.889C529.407 758.918 504.524 763.015 502.737 763.313C502.662 763.313 502.588 763.313 502.513 763.313L475.246 754.076C472.937 753.331 470.628 754.97 470.628 757.428V771.434C470.628 771.583 470.628 771.657 470.479 771.732C469.734 772.402 465.86 776.425 466.679 784.918C467.573 794.305 472.937 797.21 472.937 797.21L484.261 803.692C484.261 803.245 484.335 803.17 484.335 802.798C485.229 792.964 496.181 787.898 506.461 793.858C516.817 799.818 525.161 814.345 525.161 826.265C525.161 826.563 525.161 826.861 525.086 827.159L599.958 870.145L608.972 875.285C609.27 875.434 609.717 875.211 609.642 874.838C609.27 870.964 608.599 855.916 621.86 855.543C637.505 855.096 649.946 876.552 651.362 889.366C651.809 893.612 651.213 896.815 650.915 899.125C650.915 899.274 650.989 899.423 651.138 899.497L673.041 912.088C673.264 912.162 683.322 917.005 697.402 918.122C698.221 918.197 699.041 917.601 699.19 916.707C699.86 911.641 701.201 894.506 687.121 880.649Z" fill="url(#paint7_linear_2301_2)"/>
<path d="M504.226 770.838L634.376 847.05C634.376 847.05 615.974 807.193 588.708 788.345C563.155 770.689 548.404 767.113 530.673 765.995C516.518 764.952 504.226 770.838 504.226 770.838Z" fill="#EEEFEF"/>
<path d="M614.856 796.168L648.157 836.919C649.349 838.409 651.286 839.005 653.074 838.409C661.641 835.652 686.97 826.191 709.395 804.363C710.587 803.171 710.661 801.234 709.544 799.967L674.455 759.44C673.337 758.173 671.4 758.099 670.208 759.291C664.77 764.878 648.306 779.555 615.973 791.996C614.334 792.666 613.738 794.752 614.856 796.168Z" fill="#EEEFEF"/>
<path d="M538.05 756.534C535.145 756.087 527.471 754.895 520.617 754.895C519.723 754.895 519.425 753.778 520.17 753.256L570.904 721.52C571.276 721.296 571.723 721.147 572.17 721.073C574.629 720.849 583.047 720.179 588.784 720.998C589.603 721.147 589.827 722.19 589.156 722.637L540.21 756.013C539.54 756.46 538.795 756.683 538.05 756.534Z" fill="#EEEFEF"/>
<path d="M470.48 770.987V762.569C470.48 762.569 481.133 765.847 481.208 771.881C481.357 777.99 470.48 770.987 470.48 770.987Z" fill="#D64883"/>
<path d="M769.293 861.354V874.391C769.293 874.391 764.897 879.904 760.055 879.085C755.212 878.191 757.522 870.145 760.055 868.729C762.588 867.165 769.293 861.354 769.293 861.354Z" fill="#EEEFEF"/>
<path d="M698.146 899.944C698.146 899.944 709.917 894.655 712.301 897.635C715.206 901.285 714.461 907.022 708.799 909.033C703.137 911.045 700.679 912.162 698.444 911.864C696.209 911.566 693.676 911.492 692.037 910.449C689.355 908.884 688.834 902.403 692.037 900.317C693.453 899.497 698.146 899.944 698.146 899.944Z" fill="#EEEFEF"/>
<path d="M758.195 681.068L656.28 622.959L757.524 563.807L859.439 621.841L758.195 681.068Z" fill="#FEFEFE"/>
<g clip-path="url(#clip2_2301_2)">
<path opacity="0.1" d="M834.842 702.098L808.646 686.977L831.254 673.92L857.368 689.091L834.842 702.098Z" fill="black"/>
<path opacity="0.1" d="M730.91 642.99L704.714 627.868L727.322 614.811L753.436 629.982L730.91 642.99Z" fill="black"/>
<path d="M820.376 640.384V688.157L834.776 696.479V648.707L820.376 640.384Z" fill="#B8B8B8"/>
<path d="M845.818 690.106L834.776 696.479V648.707L845.818 642.334V690.106Z" fill="#A2A2A2"/>
<path d="M716.542 580.44V628.212L730.942 636.518V588.746L716.542 580.44Z" fill="#B8B8B8"/>
<path d="M741.968 630.162L730.942 636.518V588.746L741.968 582.39V630.162Z" fill="#A2A2A2"/>
<path d="M849.537 673.166L703.125 588.418V361.386L849.537 446.134V673.166Z" fill="#D1D1D1"/>
<path d="M834.629 653.015L714.723 583.585L714.707 381.88L834.613 451.311L834.629 653.015Z" fill="#EB242A"/>
<path d="M718.688 384.174L714.707 381.88V583.602L834.613 653.032V648.641L718.688 581.521V384.174Z" fill="#7E7E7E"/>
<path d="M867.722 662.714L849.537 673.167V446.134L867.722 435.682V662.714Z" fill="#B8B8B8"/>
<path d="M721.309 350.934L703.125 361.386L849.537 446.134L867.722 435.682L721.309 350.934Z" fill="#FEFEFE"/>
</g>
<g clip-path="url(#clip3_2301_2)">
<path d="M749.16 422.442V464.853L741.965 460.573V427.813L733.322 425.868V419.269L748.386 421.982L749.16 422.442Z" fill="white"/>
<path d="M785.483 461.581V468.906C785.483 472.084 785.192 474.653 784.609 476.612C784.026 478.552 783.185 479.932 782.086 480.751C781.003 481.56 779.713 481.868 778.214 481.673C776.715 481.479 775.049 480.837 773.217 479.747C771.752 478.875 770.386 477.85 769.12 476.67C767.855 475.472 766.714 474.105 765.698 472.57C764.699 471.046 763.833 469.358 763.1 467.507C762.384 465.647 761.834 463.615 761.451 461.41C761.068 459.206 760.876 456.825 760.876 454.267V446.941C760.876 443.763 761.168 441.214 761.751 439.293C762.35 437.363 763.191 435.993 764.274 435.184C765.373 434.385 766.672 434.092 768.171 434.305C769.67 434.499 771.335 435.141 773.167 436.231C774.633 437.103 775.99 438.133 777.239 439.322C778.505 440.502 779.646 441.849 780.662 443.364C781.678 444.879 782.544 446.567 783.26 448.427C783.976 450.268 784.526 452.291 784.909 454.495C785.292 456.68 785.483 459.042 785.483 461.581ZM778.264 465.715V456.152C778.264 454.621 778.189 453.239 778.039 452.007C777.906 450.784 777.697 449.691 777.414 448.728C777.131 447.746 776.781 446.879 776.365 446.127C775.949 445.376 775.474 444.725 774.941 444.176C774.408 443.626 773.817 443.158 773.167 442.772C772.351 442.286 771.627 442.039 770.994 442.031C770.378 442.032 769.853 442.311 769.42 442.868C768.987 443.405 768.654 444.272 768.421 445.471C768.204 446.66 768.096 448.204 768.096 450.103V459.666C768.096 461.197 768.163 462.584 768.296 463.826C768.446 465.078 768.662 466.205 768.945 467.206C769.245 468.199 769.595 469.075 769.995 469.836C770.411 470.588 770.886 471.238 771.419 471.788C771.968 472.348 772.568 472.821 773.217 473.207C774.017 473.683 774.725 473.92 775.341 473.918C775.974 473.907 776.507 473.623 776.94 473.067C777.389 472.501 777.722 471.614 777.939 470.406C778.155 469.197 778.264 467.634 778.264 465.715Z" fill="white"/>
<path d="M790.28 457.371V455.133C790.28 453.524 790.58 452.239 791.179 451.278C791.779 450.317 792.661 449.786 793.827 449.685C794.993 449.584 796.425 450.039 798.124 451.05C799.873 452.09 801.33 453.354 802.496 454.842C803.678 456.341 804.561 457.922 805.144 459.586C805.744 461.261 806.043 462.902 806.043 464.511V466.749C806.043 468.319 805.744 469.584 805.144 470.545C804.561 471.516 803.687 472.052 802.521 472.153C801.355 472.254 799.914 471.794 798.199 470.774C796.467 469.743 795.01 468.479 793.827 466.981C792.661 465.493 791.779 463.912 791.179 462.237C790.58 460.563 790.28 458.94 790.28 457.371ZM795.051 457.971V460.21C795.051 460.888 795.16 461.601 795.376 462.35C795.609 463.09 795.959 463.792 796.425 464.457C796.908 465.113 797.491 465.644 798.174 466.05C798.89 466.476 799.473 466.639 799.923 466.538C800.372 466.418 800.706 466.122 800.922 465.65C801.139 465.159 801.247 464.574 801.247 463.895V461.657C801.247 460.94 801.13 460.212 800.897 459.472C800.681 458.723 800.339 458.026 799.873 457.381C799.423 456.725 798.84 456.185 798.124 455.759C797.458 455.362 796.892 455.219 796.425 455.33C795.959 455.42 795.609 455.706 795.376 456.188C795.16 456.66 795.051 457.254 795.051 457.971ZM807.667 491.522V489.284C807.667 487.695 807.967 486.42 808.566 485.459C809.183 484.508 810.074 483.982 811.24 483.881C812.422 483.79 813.871 484.254 815.586 485.275C817.318 486.305 818.767 487.565 819.933 489.053C821.099 490.541 821.982 492.122 822.581 493.797C823.181 495.471 823.481 497.103 823.481 498.692V500.93C823.481 502.519 823.181 503.794 822.581 504.756C821.998 505.727 821.124 506.263 819.958 506.363C818.792 506.464 817.352 506.005 815.636 504.984C813.904 503.954 812.447 502.689 811.265 501.191C810.082 499.693 809.183 498.102 808.566 496.418C807.967 494.743 807.667 493.111 807.667 491.522ZM812.464 492.138V494.376C812.464 495.074 812.597 495.812 812.863 496.59C813.13 497.369 813.496 498.081 813.963 498.727C814.446 499.382 815.003 499.898 815.636 500.275C816.436 500.751 817.06 500.938 817.51 500.837C817.96 500.737 818.268 500.426 818.434 499.905C818.617 499.394 818.709 498.789 818.709 498.092V495.853C818.709 495.156 818.592 494.437 818.359 493.698C818.126 492.939 817.776 492.237 817.31 491.591C816.86 490.936 816.286 490.4 815.586 489.984C814.887 489.568 814.304 489.415 813.838 489.525C813.388 489.626 813.047 489.917 812.813 490.398C812.58 490.86 812.464 491.44 812.464 492.138ZM817.36 469.151L799.598 491.663L796.101 487.432L813.863 464.919L817.36 469.151Z" fill="white"/>
<path d="M746.728 514.214L751.605 517.116C751.477 518.918 751.009 520.307 750.202 521.283C749.406 522.266 748.305 522.748 746.9 522.73C745.505 522.718 743.835 522.133 741.888 520.975C740.366 520.069 739.006 518.954 737.809 517.628C736.612 516.29 735.594 514.79 734.754 513.128C733.925 511.472 733.301 509.695 732.882 507.798C732.463 505.9 732.271 503.939 732.304 501.915L732.336 499.998C732.37 497.974 732.628 496.282 733.112 494.921C733.607 493.555 734.293 492.551 735.172 491.911C736.061 491.277 737.114 491.01 738.331 491.108C739.549 491.206 740.902 491.698 742.392 492.585C744.371 493.762 746.034 495.173 747.379 496.816C748.735 498.467 749.777 500.249 750.503 502.163C751.239 504.083 751.668 506.025 751.79 507.988L746.896 505.077C746.86 503.931 746.685 502.875 746.372 501.909C746.059 500.931 745.574 500.048 744.917 499.261C744.271 498.468 743.405 497.748 742.317 497.101C741.502 496.616 740.786 496.37 740.171 496.361C739.557 496.353 739.037 496.587 738.611 497.062C738.186 497.538 737.861 498.264 737.636 499.242C737.422 500.214 737.303 501.433 737.279 502.901L737.247 504.856C737.223 506.285 737.295 507.599 737.461 508.797C737.628 509.983 737.896 511.062 738.264 512.035C738.644 513.001 739.135 513.856 739.737 514.597C740.351 515.333 741.093 515.96 741.963 516.477C742.985 517.085 743.831 517.397 744.501 517.412C745.17 517.427 745.685 517.165 746.046 516.626C746.417 516.093 746.644 515.289 746.728 514.214Z" fill="white"/>
<path d="M764.703 511.033L757.864 530.096L752.66 527.001L761.943 504.619L765.255 506.589L764.703 511.033ZM769.69 537.132L763.594 510.373L763.15 505.337L766.494 507.327L774.91 540.238L769.69 537.132ZM769.567 526.671L769.493 531.131L756.949 523.668L757.023 519.209L769.567 526.671Z" fill="white"/>
<path d="M789.596 541.673C789.605 541.18 789.547 540.698 789.423 540.228C789.31 539.752 789.087 539.249 788.756 538.72C788.424 538.178 787.957 537.561 787.353 536.87C786.75 536.179 785.967 535.368 785.005 534.438C783.935 533.393 782.921 532.329 781.961 531.247C781.013 530.172 780.174 529.079 779.446 527.968C778.728 526.851 778.165 525.718 777.756 524.567C777.358 523.423 777.168 522.256 777.188 521.067C777.207 519.916 777.442 519.001 777.892 518.324C778.343 517.634 778.966 517.186 779.76 516.982C780.554 516.764 781.487 516.789 782.559 517.056C783.641 517.33 784.824 517.848 786.108 518.612C787.858 519.653 789.38 520.929 790.673 522.44C791.966 523.95 792.96 525.557 793.657 527.262C794.364 528.973 794.704 530.651 794.677 532.296L789.816 529.404C789.83 528.595 789.695 527.799 789.411 527.017C789.139 526.229 788.712 525.483 788.13 524.779C787.56 524.082 786.834 523.471 785.953 522.947C785.105 522.443 784.396 522.174 783.825 522.141C783.255 522.096 782.824 522.242 782.533 522.58C782.242 522.905 782.092 523.378 782.081 523.997C782.074 524.466 782.164 524.948 782.354 525.444C782.554 525.946 782.853 526.482 783.25 527.05C783.647 527.618 784.136 528.223 784.719 528.863C785.301 529.503 785.976 530.192 786.743 530.93C788.03 532.155 789.158 533.344 790.127 534.495C791.107 535.654 791.923 536.784 792.575 537.887C793.226 538.99 793.713 540.091 794.036 541.19C794.358 542.289 794.509 543.408 794.491 544.547C794.471 545.749 794.252 546.704 793.834 547.414C793.415 548.123 792.82 548.581 792.048 548.786C791.276 548.991 790.36 548.95 789.299 548.664C788.239 548.378 787.056 547.847 785.751 547.071C784.577 546.372 783.421 545.506 782.285 544.472C781.15 543.426 780.12 542.258 779.197 540.968C778.285 539.684 777.561 538.308 777.025 536.839C776.49 535.37 776.235 533.858 776.26 532.302L781.17 535.223C781.156 536.083 781.258 536.879 781.477 537.609C781.695 538.34 782.008 539.011 782.415 539.624C782.833 540.243 783.329 540.807 783.903 541.314C784.487 541.828 785.127 542.292 785.823 542.706C786.672 543.21 787.37 543.485 787.918 543.53C788.477 543.582 788.892 543.439 789.161 543.101C789.441 542.769 789.586 542.293 789.596 541.673Z" fill="white"/>
<path d="M813.808 546.84L813.734 551.281L801.337 543.905L801.411 539.465L813.808 546.84ZM803.049 529.074L802.591 556.706L797.698 553.795L798.156 526.163L803.049 529.074ZM817.485 537.663L817.027 565.295L812.15 562.393L812.608 534.761L817.485 537.663Z" fill="white"/>
<path d="M741.528 555.588L735.428 551.959L735.46 548.03L740.582 551.077C741.485 551.614 742.226 551.921 742.807 551.999C743.388 552.063 743.824 551.92 744.115 551.57C744.418 551.213 744.575 550.655 744.588 549.896C744.602 549.036 744.472 548.256 744.198 547.556C743.935 546.863 743.512 546.221 742.929 545.632C742.357 545.048 741.614 544.485 740.7 543.942L737.307 541.923L736.923 565.095L732.03 562.184L732.488 534.552L740.774 539.482C742.155 540.303 743.387 541.19 744.469 542.14C745.563 543.097 746.485 544.112 747.236 545.185C747.987 546.258 748.556 547.388 748.942 548.577C749.329 549.752 749.512 550.985 749.49 552.276C749.471 553.415 749.231 554.332 748.769 555.028C748.318 555.731 747.615 556.105 746.659 556.149C745.713 556.2 744.484 555.807 742.972 554.971L741.528 555.588ZM741.115 567.589L733.889 563.29L735.871 559.985L741.189 563.148C742.048 563.659 742.752 563.918 743.301 563.926C743.85 563.92 744.26 563.717 744.53 563.315C744.8 562.914 744.941 562.353 744.953 561.632C744.967 560.822 744.859 560.048 744.63 559.311C744.411 558.581 744.049 557.906 743.543 557.285C743.037 556.652 742.366 556.087 741.528 555.588L736.814 552.784L736.912 548.894L742.784 552.387L743.884 554.594C745.331 555.429 746.489 556.419 747.36 557.563C748.242 558.701 748.876 559.876 749.262 561.09C749.659 562.31 749.848 563.477 749.83 564.59C749.8 566.361 749.444 567.657 748.76 568.477C748.077 569.284 747.089 569.61 745.796 569.454C744.513 569.304 742.953 568.682 741.115 567.589Z" fill="white"/>
<path d="M763.402 557.716L756.563 576.779L751.359 573.684L760.642 551.302L763.953 553.272L763.402 557.716ZM768.389 583.815L762.293 557.056L761.849 552.02L765.193 554.01L773.609 586.921L768.389 583.815ZM768.266 573.354L768.192 577.814L755.648 570.351L755.722 565.892L768.266 573.354Z" fill="white"/>
<path d="M789.436 587.08L794.314 589.982C794.185 591.784 793.717 593.173 792.91 594.149C792.114 595.132 791.014 595.614 789.608 595.596C788.214 595.584 786.543 594.999 784.597 593.841C783.074 592.935 781.714 591.82 780.517 590.494C779.321 589.156 778.302 587.656 777.462 585.993C776.633 584.337 776.009 582.561 775.59 580.663C775.172 578.766 774.979 576.805 775.012 574.781L775.044 572.864C775.078 570.84 775.337 569.148 775.82 567.787C776.315 566.421 777.002 565.417 777.88 564.777C778.769 564.143 779.822 563.876 781.04 563.974C782.257 564.072 783.61 564.564 785.1 565.451C787.079 566.628 788.742 568.039 790.087 569.682C791.444 571.333 792.485 573.115 793.211 575.029C793.948 576.949 794.377 578.891 794.498 580.854L789.604 577.943C789.568 576.797 789.394 575.741 789.08 574.775C788.767 573.797 788.282 572.914 787.625 572.127C786.979 571.334 786.113 570.614 785.025 569.967C784.21 569.482 783.495 569.235 782.88 569.227C782.265 569.219 781.745 569.453 781.32 569.928C780.894 570.404 780.569 571.13 780.345 572.108C780.131 573.08 780.012 574.299 779.987 575.767L779.955 577.721C779.931 579.151 780.003 580.465 780.17 581.663C780.337 582.848 780.604 583.928 780.973 584.9C781.352 585.867 781.843 586.722 782.446 587.463C783.059 588.199 783.801 588.826 784.671 589.343C785.693 589.951 786.539 590.263 787.209 590.278C787.879 590.293 788.394 590.031 788.754 589.492C789.125 588.959 789.353 588.155 789.436 587.08Z" fill="white"/>
<path d="M802.727 576.34L802.269 603.971L797.375 601.06L797.833 573.428L802.727 576.34ZM816.951 584.802L807.313 592.848L801.768 596.41L800.977 590.496L804.744 586.835L810.948 581.231L816.951 584.802ZM810.93 609.125L804.144 592.189L807.824 590.814L816.721 612.57L810.93 609.125Z" fill="white"/>
</g>
<path d="M852.412 837.467C852.412 837.467 858.804 805.084 824.026 807.088C824.026 807.088 824.637 842.732 852.412 837.467Z" fill="#EC715D"/>
<path d="M875.769 849.629C875.769 849.629 865.195 828.614 897.012 821.719C897.012 821.719 900.395 852.005 875.769 849.629Z" fill="#EC715D"/>
<path d="M884.605 785.934C884.605 785.934 901.618 822.51 869.19 828.847C869.143 828.847 846.35 802.381 884.605 785.934Z" fill="#E65473"/>
<path d="M866.934 866.169H868.015C867.921 865.377 867.874 864.585 867.78 863.839C867.31 857.223 867.451 850.56 868.015 843.943C868.579 837.327 869.566 830.757 870.835 824.234C871.493 820.972 872.198 817.711 873.044 814.496C873.843 811.281 874.735 808.066 875.722 804.851C873.279 811.048 871.399 817.524 869.942 824.001C869.19 827.263 868.579 830.524 868.015 833.832C867.498 837.141 867.122 840.449 866.793 843.804C866.511 847.158 866.37 850.467 866.37 853.821C866.37 857.176 866.511 860.484 866.746 863.979C866.793 864.818 866.84 865.423 866.934 866.169Z" fill="#E02D7B"/>
<path d="M840.852 820.087L842.497 822.277C843.061 822.976 843.531 823.768 844.094 824.514C844.611 825.259 845.175 826.005 845.645 826.797L847.102 829.127C847.572 829.919 848.089 830.664 848.512 831.503L849.828 833.926C850.251 834.718 850.721 835.51 851.097 836.349C851.896 837.98 852.742 839.61 853.494 841.288L855.703 846.32L856.267 847.578L856.736 848.883L857.723 851.445C859.133 854.847 860.167 858.341 861.342 861.789L861.765 863.094L862.141 864.399L862.893 867.054L863.081 867.753H864.585L863.363 864.026L862.987 862.675L862.564 861.37C861.436 857.875 860.355 854.334 858.992 850.933L858.005 848.37L857.488 847.065L856.924 845.807L854.669 840.775C853.87 839.144 852.977 837.467 852.131 835.836C851.708 834.997 851.238 834.205 850.768 833.413L849.358 831.037C848.888 830.245 848.418 829.453 847.901 828.707L846.35 826.424C845.833 825.632 845.269 824.933 844.705 824.188C844.141 823.442 843.625 822.697 843.014 821.998L841.228 819.901L839.301 817.897C837.985 816.593 836.622 815.335 835.118 814.31C836.575 815.474 837.797 816.826 839.019 818.177L840.852 820.087Z" fill="#E02D7B"/>
<path d="M871.729 867.706L871.917 866.309L872.246 864.724L872.857 861.509L873.655 858.341C874.736 854.148 876.146 850.001 878.026 846.087C878.966 844.13 880 842.173 881.175 840.356C882.303 838.492 883.619 836.721 885.17 835.184C883.431 836.581 882.021 838.305 880.705 840.029C880.047 840.915 879.436 841.847 878.825 842.779C878.214 843.71 877.744 844.689 877.18 845.667C875.112 849.581 873.655 853.775 872.481 858.061L871.682 861.276L870.977 864.445L870.648 866.169L870.366 867.753H871.729V867.706Z" fill="#E02D7B"/>
<path d="M750.435 211.178C815.516 235.677 852.922 193.294 901.444 211.37C918.617 217.794 1055.5 257.367 1070.84 191.934C1072.39 199.03 1072.72 205.814 1071.51 211.736C1057.32 278.597 919.07 238.51 901.806 232.031C853.285 213.954 815.878 256.338 750.797 231.839C716.778 219.066 709.062 197.847 714.074 179.259C717.894 191.478 728.741 203.012 750.435 211.178Z" fill="#D1D1D1"/>
<path d="M749.872 145.193C782.672 136.29 750.056 76.0127 825.901 64.5633C901.746 53.1139 911.06 163.367 972.808 139.068C1024.01 118.909 1063.21 159.404 1070.87 193.785C1055.56 259.008 918.941 219.545 901.721 213.161C853.269 195.143 815.916 237.39 750.927 212.971C729.336 204.813 718.433 193.335 714.565 181.246C719.125 164.231 734.154 149.472 749.872 145.193Z" fill="#FEFEFE"/>
<path d="M382 0H1372V949H382V0Z" fill="url(#paint8_linear_2301_2)"/>
<g clip-path="url(#clip4_2301_2)">
<path d="M319.376 364.9C325.952 338.003 339.92 317.884 358.427 305.489L355.389 304.274L374.41 297.139C375.215 296.838 376.02 296.503 376.825 296.236L377.228 296.085C406.117 285.939 441.86 290.781 477.341 312.998C546.883 356.568 588.941 450.449 571.228 522.682C563.349 554.837 544.958 577.26 520.855 588.443L520.889 588.447L520.721 588.493C517.302 590.079 513.746 591.444 510.087 592.557L490.531 600.029L490.5 596.257C466.624 598.137 439.849 591.252 413.263 574.584C343.721 531.014 301.696 437.137 319.376 364.9Z" fill="url(#paint9_linear_2301_2)"/>
<path d="M297.503 373.119C279.824 445.356 321.849 539.232 391.391 582.802C460.933 626.372 531.677 603.138 549.356 530.901C567.035 458.664 525.01 364.787 455.468 321.217C385.927 277.647 315.183 300.882 297.503 373.119Z" fill="url(#paint10_linear_2301_2)"/>
<path d="M313.407 383.901C298.202 446.044 334.366 526.829 394.2 564.302C454.034 601.774 514.878 581.784 530.116 519.645C545.321 457.502 509.158 376.717 449.323 339.244C389.489 301.772 328.612 321.757 313.407 383.901Z" fill="url(#paint11_linear_2301_2)"/>
<path d="M313.407 383.901C298.202 446.044 334.366 526.829 394.2 564.302C454.034 601.774 514.878 581.784 530.116 519.645C545.321 457.502 509.158 376.717 449.323 339.244C389.489 301.772 328.612 321.757 313.407 383.901Z" fill="url(#paint12_linear_2301_2)"/>
<path opacity="0.4" d="M485.357 369.933C471.857 352.433 441.357 331.433 420.357 325.433L414.357 445.933L485.357 369.933Z" fill="#E85B6B"/>
<path d="M405.811 560.4C345.976 522.893 309.813 442.142 325.051 379.969C332.019 351.563 348.515 331.98 370.11 322.673C342.874 329.371 321.58 350.562 313.407 383.901C298.202 446.044 334.366 526.829 394.2 564.302C426.671 584.664 459.44 588.027 485.058 576.976C461.483 582.764 433.546 577.763 405.811 560.4Z" fill="#BCBCBC"/>
<path d="M464.952 386.136L407.361 449.86C406.728 450.591 406.838 451.76 407.619 452.541C408.399 453.289 409.543 453.338 410.177 452.64L466.615 387.814C467.248 387.083 467.443 386.192 466.832 385.603C466.154 385.004 465.252 385.802 464.952 386.136Z" fill="url(#paint13_linear_2301_2)"/>
<path fill-rule="evenodd" clip-rule="evenodd" d="M464.869 383.95C465.394 383.699 466.637 383.322 467.831 384.377L467.866 384.407L467.899 384.439C468.744 385.255 468.971 386.274 468.86 387.11C468.757 387.884 468.377 388.543 467.944 389.042L411.494 453.883L411.484 453.893C410.255 455.245 408.048 455.139 406.557 453.71L406.54 453.694L406.524 453.678C405.051 452.202 404.853 449.993 406.032 448.632L406.041 448.621L463.639 384.888C463.64 384.888 463.64 384.887 463.641 384.887C463.851 384.653 464.292 384.226 464.869 383.95ZM420.651 437.854L408.685 451.095C408.642 451.148 408.631 451.203 408.636 451.252C408.64 451.295 408.657 451.341 408.696 451.386C408.759 451.435 408.828 451.428 408.865 451.392L420.651 437.854Z" fill="url(#paint14_linear_2301_2)"/>
<path d="M419.082 385.595L414.945 447.261C414.884 448.102 415.564 448.938 416.407 449.117C417.249 449.295 417.985 448.747 418.012 447.902L420.903 386.004C420.963 385.164 420.654 384.377 419.98 384.254C419.272 384.161 419.113 385.226 419.082 385.595Z" fill="url(#paint15_linear_2301_2)"/>
<path fill-rule="evenodd" clip-rule="evenodd" d="M417.723 383.88C417.928 383.414 418.558 382.37 419.966 382.555L420.008 382.561L420.05 382.568C421.107 382.761 421.836 383.512 422.208 384.28C422.546 384.977 422.626 385.716 422.585 386.338L419.695 448.207C419.629 450.03 418.05 451.167 416.286 450.792C414.582 450.431 413.136 448.737 413.264 446.909C413.264 446.908 413.264 446.906 413.265 446.905L417.403 385.233L417.404 385.22C417.424 384.973 417.49 384.41 417.723 383.88Z" fill="url(#paint16_linear_2301_2)"/>
<path d="M421.579 345.4L421.524 338.639C421.507 336.567 422.944 335.398 424.766 336.046C426.555 336.688 428.054 338.922 428.071 340.995L428.127 347.756C428.144 349.828 426.706 350.997 424.884 350.349C423.061 349.702 421.596 347.473 421.579 345.4ZM427.029 566.689C428.817 567.332 430.288 566.168 430.271 564.096L430.216 557.334C430.199 555.262 428.7 553.028 426.911 552.385C425.123 551.743 423.651 552.907 423.669 554.979L423.724 561.74C423.741 563.813 425.206 566.042 427.029 566.689ZM468.769 379.715C470.33 381.312 472.35 381.442 473.213 379.96L476.101 375.148C476.997 373.671 476.438 371.188 474.843 369.552C473.282 367.955 471.262 367.825 470.4 369.307L467.511 374.119C466.649 375.601 467.208 378.118 468.769 379.715ZM376.884 533.14C378.445 534.737 380.465 534.867 381.328 533.385L384.216 528.573C385.112 527.096 384.554 524.613 382.959 522.977C381.398 521.38 379.378 521.25 378.515 522.732L375.627 527.544C374.764 529.06 375.323 531.543 376.884 533.14ZM501.202 428.275C502.128 430.4 504.124 431.749 505.668 431.273L510.703 429.73C512.247 429.254 512.768 427.151 511.842 425.027C510.916 422.902 508.92 421.553 507.376 422.029L502.308 423.568C500.797 424.048 500.276 426.151 501.202 428.275ZM339.885 477.699C340.811 479.824 342.808 481.173 344.352 480.697L349.386 479.154C350.93 478.678 351.452 476.575 350.526 474.45C349.6 472.326 347.603 470.977 346.059 471.453L341.024 472.996C339.48 473.472 338.959 475.575 339.885 477.699ZM513.429 483.034C513.446 485.107 514.945 487.34 516.733 487.983L522.606 490.114C524.395 490.757 525.866 489.593 525.849 487.52C525.832 485.448 524.333 483.214 522.544 482.571L516.672 480.44C514.849 479.793 513.412 480.962 513.429 483.034ZM325.913 415.21C325.93 417.283 327.429 419.517 329.217 420.159L335.09 422.29C336.879 422.933 338.35 421.769 338.333 419.696C338.316 417.624 336.817 415.39 335.028 414.747L329.155 412.617C327.367 411.974 325.895 413.104 325.913 415.21ZM502.199 529.308C501.303 530.785 501.861 533.269 503.456 534.904L508.58 540.127C510.141 541.724 512.161 541.854 513.024 540.372C513.921 538.895 513.362 536.412 511.767 534.776L506.643 529.554C505.082 527.923 503.096 527.831 502.199 529.308ZM338.737 362.392C337.841 363.869 338.4 366.353 339.995 367.988L345.119 373.21C346.68 374.808 348.7 374.938 349.563 373.456C350.459 371.979 349.9 369.496 348.305 367.86L343.181 362.638C341.62 361.007 339.634 360.915 338.737 362.392ZM470.507 554.663C468.963 555.139 468.442 557.242 469.368 559.366L472.352 566.31C473.278 568.434 475.275 569.783 476.819 569.307C478.363 568.832 478.884 566.728 477.958 564.604L474.973 557.661C474.081 555.541 472.084 554.192 470.507 554.663ZM374.909 333.419C373.365 333.894 372.844 335.998 373.77 338.122L376.754 345.065C377.68 347.19 379.677 348.538 381.221 348.063C382.765 347.587 383.286 345.484 382.36 343.36L379.376 336.416C378.449 334.258 376.453 332.943 374.909 333.419Z" fill="url(#paint17_linear_2301_2)"/>
<path d="M449.29 339.274C399.298 307.951 348.626 316.79 324.423 356.774C333.698 416.744 378.598 479.606 442.582 514.23C470.163 529.163 497.921 536.958 523.606 538.269C526.252 532.576 528.456 526.384 530.083 519.675C545.288 457.531 509.124 376.746 449.29 339.274Z" fill="url(#paint18_linear_2301_2)"/>
</g>
<g opacity="0.4" clip-path="url(#clip5_2301_2)">
<path opacity="0.1" d="M282.812 822.934L240.357 798.378L282.812 773.822L325.357 798.378L282.812 822.934Z" fill="black"/>
<path d="M282.812 803.378L277.372 800.164V747.837L282.812 751.052V803.378Z" fill="#B8B8B8"/>
<path d="M288.342 800.164L282.812 803.378V751.052L288.342 747.837V800.164Z" fill="#B8B8B8"/>
<path d="M282.812 788.198L245.173 766.411L282.812 626.934V788.198Z" fill="#D1D1D1"/>
<path d="M320.541 766.411L282.812 788.198V626.934L320.541 766.411Z" fill="#B8B8B8"/>
</g>
<defs>
<linearGradient id="paint0_linear_2301_2" x1="908.208" y1="733.005" x2="1155.45" y2="667.603" gradientUnits="userSpaceOnUse">
<stop stop-color="#E02D7B"/>
<stop offset="0.3191" stop-color="#E6506F"/>
<stop offset="0.7709" stop-color="#EE7C5F"/>
<stop offset="1" stop-color="#F18D59"/>
</linearGradient>
<linearGradient id="paint1_linear_2301_2" x1="877.972" y1="769.896" x2="1221.65" y2="646.236" gradientUnits="userSpaceOnUse">
<stop stop-color="#E02D7B"/>
<stop offset="0.3191" stop-color="#E6506F"/>
<stop offset="0.7709" stop-color="#EE7C5F"/>
<stop offset="1" stop-color="#F18D59"/>
</linearGradient>
<linearGradient id="paint2_linear_2301_2" x1="823.793" y1="796.287" x2="1034.18" y2="712.777" gradientUnits="userSpaceOnUse">
<stop stop-color="#E02D7B"/>
<stop offset="0.3191" stop-color="#E6506F"/>
<stop offset="0.7709" stop-color="#EE7C5F"/>
<stop offset="1" stop-color="#F18D59"/>
</linearGradient>
<linearGradient id="paint3_linear_2301_2" x1="469.357" y1="732.434" x2="177.357" y2="540.434" gradientUnits="userSpaceOnUse">
<stop stop-color="#FEFEFE"/>
<stop offset="1" stop-color="#FEFEFE" stop-opacity="0"/>
</linearGradient>
<linearGradient id="paint4_linear_2301_2" x1="674.185" y1="257.65" x2="530.719" y2="257.65" gradientUnits="userSpaceOnUse">
<stop stop-color="#021290"/>
<stop offset="1" stop-color="#190158"/>
</linearGradient>
<linearGradient id="paint5_linear_2301_2" x1="650.144" y1="854.686" x2="841.871" y2="924.868" gradientUnits="userSpaceOnUse">
<stop stop-color="#E02D7B"/>
<stop offset="0.3191" stop-color="#E6506F"/>
<stop offset="0.7709" stop-color="#EE7C5F"/>
<stop offset="1" stop-color="#F18D59"/>
</linearGradient>
<linearGradient id="paint6_linear_2301_2" x1="480.685" y1="729.158" x2="864.286" y2="896.298" gradientUnits="userSpaceOnUse">
<stop stop-color="#E02D7B"/>
<stop offset="0.3191" stop-color="#E6506F"/>
<stop offset="0.7709" stop-color="#EE7C5F"/>
<stop offset="1" stop-color="#F18D59"/>
</linearGradient>
<linearGradient id="paint7_linear_2301_2" x1="410.759" y1="788.414" x2="1050.09" y2="950.075" gradientUnits="userSpaceOnUse">
<stop stop-color="#E02D7B"/>
<stop offset="0.3191" stop-color="#E6506F"/>
<stop offset="0.7709" stop-color="#EE7C5F"/>
<stop offset="1" stop-color="#F18D59"/>
</linearGradient>
<linearGradient id="paint8_linear_2301_2" x1="1239.5" y1="-21.0319" x2="951.037" y2="449.499" gradientUnits="userSpaceOnUse">
<stop stop-color="white"/>
<stop offset="1" stop-color="white" stop-opacity="0"/>
</linearGradient>
<linearGradient id="paint9_linear_2301_2" x1="315.558" y1="427.493" x2="574.777" y2="425.367" gradientUnits="userSpaceOnUse">
<stop stop-color="#E02D7B"/>
<stop offset="0.2101" stop-color="#E02F78"/>
<stop offset="0.3901" stop-color="#E2376D"/>
<stop offset="0.5589" stop-color="#E5435B"/>
<stop offset="0.7211" stop-color="#E85443"/>
<stop offset="0.877" stop-color="#ED6A23"/>
<stop offset="1" stop-color="#F17F04"/>
</linearGradient>
<linearGradient id="paint10_linear_2301_2" x1="535.282" y1="410.041" x2="313.048" y2="515.369" gradientUnits="userSpaceOnUse">
<stop stop-color="#E02D7B"/>
<stop offset="0.2101" stop-color="#E02F78"/>
<stop offset="0.3901" stop-color="#E2376D"/>
<stop offset="0.5589" stop-color="#E5435B"/>
<stop offset="0.7211" stop-color="#E85443"/>
<stop offset="0.877" stop-color="#ED6A23"/>
<stop offset="1" stop-color="#F17F04"/>
</linearGradient>
<linearGradient id="paint11_linear_2301_2" x1="345.425" y1="519.265" x2="498.043" y2="384.312" gradientUnits="userSpaceOnUse">
<stop stop-color="#7AA9F2"/>
<stop offset="0.203" stop-color="#90BBF6"/>
<stop offset="0.5201" stop-color="#ACD3FB"/>
<stop offset="0.7966" stop-color="#BEE2FE"/>
<stop offset="1" stop-color="#C4E7FF"/>
</linearGradient>
<linearGradient id="paint12_linear_2301_2" x1="345.425" y1="519.265" x2="498.043" y2="384.312" gradientUnits="userSpaceOnUse">
<stop offset="1.38522e-07" stop-color="#B8B8B8"/>
<stop offset="0.1741" stop-color="#CACACA"/>
<stop offset="0.5027" stop-color="#E6E6E6"/>
<stop offset="0.7892" stop-color="#F8F8F8"/>
<stop offset="1" stop-color="#FEFEFE"/>
</linearGradient>
<linearGradient id="paint13_linear_2301_2" x1="471.662" y1="419.27" x2="403.879" y2="428.447" gradientUnits="userSpaceOnUse">
<stop offset="1.33195e-07" stop-color="#231F20"/>
<stop offset="0.3981" stop-color="#2C292A"/>
<stop offset="1" stop-color="#404041"/>
</linearGradient>
<linearGradient id="paint14_linear_2301_2" x1="407.428" y1="413.289" x2="467.145" y2="416.757" gradientUnits="userSpaceOnUse">
<stop offset="1.33195e-07" stop-color="#231F20"/>
<stop offset="0.3981" stop-color="#2C292A"/>
<stop offset="1" stop-color="#404041"/>
</linearGradient>
<linearGradient id="paint15_linear_2301_2" x1="402.676" y1="399.176" x2="433.777" y2="434.686" gradientUnits="userSpaceOnUse">
<stop offset="1.33195e-07" stop-color="#231F20"/>
<stop offset="0.3981" stop-color="#2C292A"/>
<stop offset="1" stop-color="#404041"/>
</linearGradient>
<linearGradient id="paint16_linear_2301_2" x1="413.427" y1="416.115" x2="422.435" y2="416.08" gradientUnits="userSpaceOnUse">
<stop offset="1.33195e-07" stop-color="#231F20"/>
<stop offset="0.3981" stop-color="#2C292A"/>
<stop offset="1" stop-color="#404041"/>
</linearGradient>
<linearGradient id="paint17_linear_2301_2" x1="326.116" y1="438.227" x2="525.411" y2="436.592" gradientUnits="userSpaceOnUse">
<stop stop-color="#992053"/>
<stop offset="0.1783" stop-color="#B02753"/>
<stop offset="0.5439" stop-color="#DB3354"/>
<stop offset="0.8302" stop-color="#F53A54"/>
<stop offset="1" stop-color="#FF3D54"/>
</linearGradient>
<linearGradient id="paint18_linear_2301_2" x1="353.537" y1="507.404" x2="519.224" y2="360.894" gradientUnits="userSpaceOnUse">
<stop stop-color="white"/>
<stop offset="0.0454" stop-color="white" stop-opacity="0.9546"/>
<stop offset="1" stop-color="white" stop-opacity="0"/>
</linearGradient>
<clipPath id="clip0_2301_2">
<rect width="193" height="50" fill="white" transform="translate(857.357 147.934)"/>
</clipPath>
<clipPath id="clip1_2301_2">
<rect width="21" height="20" fill="white" transform="translate(868.357 163.934)"/>
</clipPath>
<clipPath id="clip2_2301_2">
<rect width="164.598" height="351.165" fill="white" transform="translate(703.125 350.934)"/>
</clipPath>
<clipPath id="clip3_2301_2">
<rect width="210" height="280.063" fill="white" transform="translate(680.125 416.934)"/>
</clipPath>
<clipPath id="clip4_2301_2">
<rect width="283.913" height="308.92" fill="white" transform="matrix(0.991445 0.130526 0.00820296 0.999966 292.357 274.934)"/>
</clipPath>
<clipPath id="clip5_2301_2">
<rect width="85" height="196" fill="white" transform="translate(240.357 626.934)"/>
</clipPath>
</defs>
</svg>
