<svg width="68" height="68" viewBox="0 0 68 68" fill="none" xmlns="http://www.w3.org/2000/svg">
<path fill-rule="evenodd" clip-rule="evenodd" d="M34 66C51.6731 66 66 51.6731 66 34C66 16.3269 51.6731 2 34 2C16.3269 2 2 16.3269 2 34C2 51.6731 16.3269 66 34 66Z" stroke="#001A49" stroke-width="4"/>
<path fill-rule="evenodd" clip-rule="evenodd" d="M36 18C36 17.4696 35.7893 16.9609 35.4142 16.5858C35.0391 16.2107 34.5304 16 34 16C33.4696 16 32.9609 16.2107 32.5858 16.5858C32.2107 16.9609 32 17.4696 32 18V20C29.8783 20 27.8434 20.8429 26.3431 22.3431C24.8429 23.8434 24 25.8783 24 28C24 30.1217 24.8429 32.1566 26.3431 33.6569C27.8434 35.1571 29.8783 36 32 36V44C31.1727 44.0001 30.3656 43.7438 29.69 43.2664C29.0143 42.789 28.5032 42.1139 28.227 41.334C28.0434 40.8431 27.6745 40.4438 27.1996 40.2222C26.7247 40.0005 26.1817 39.9741 25.6876 40.1486C25.1934 40.3232 24.7874 40.6847 24.5571 41.1555C24.3268 41.6263 24.2905 42.1687 24.456 42.666C25.0078 44.2259 26.0295 45.5764 27.3805 46.5316C28.7315 47.4868 30.3454 47.9998 32 48V50C32 50.5304 32.2107 51.0391 32.5858 51.4142C32.9609 51.7893 33.4696 52 34 52C34.5304 52 35.0391 51.7893 35.4142 51.4142C35.7893 51.0391 36 50.5304 36 50V48C38.1217 48 40.1566 47.1571 41.6569 45.6569C43.1571 44.1566 44 42.1217 44 40C44 37.8783 43.1571 35.8434 41.6569 34.3431C40.1566 32.8429 38.1217 32 36 32V24C36.8273 23.9999 37.6344 24.2562 38.31 24.7336C38.9857 25.211 39.4968 25.8861 39.773 26.666C39.9566 27.1569 40.3255 27.5562 40.8004 27.7778C41.2753 27.9995 41.8183 28.0259 42.3124 27.8514C42.8066 27.6768 43.2126 27.3153 43.4429 26.8445C43.6732 26.3737 43.7095 25.8313 43.544 25.334C42.9922 23.7741 41.9705 22.4236 40.6195 21.4684C39.2685 20.5132 37.6546 20.0002 36 20V18ZM32 24C30.9391 24 29.9217 24.4214 29.1716 25.1716C28.4214 25.9217 28 26.9391 28 28C28 29.0609 28.4214 30.0783 29.1716 30.8284C29.9217 31.5786 30.9391 32 32 32V24ZM36 36V44C37.0609 44 38.0783 43.5786 38.8284 42.8284C39.5786 42.0783 40 41.0609 40 40C40 38.9391 39.5786 37.9217 38.8284 37.1716C38.0783 36.4214 37.0609 36 36 36Z" fill="#001A49"/>
</svg>
