<svg width="68" height="68" viewBox="0 0 68 68" fill="none" xmlns="http://www.w3.org/2000/svg">
<path d="M40.5 28L31.8437 38L28 34.2344" stroke="#001A49" stroke-width="3.5" stroke-linecap="round" stroke-linejoin="round"/>
<path fill-rule="evenodd" clip-rule="evenodd" d="M34 66C51.6731 66 66 51.6731 66 34C66 16.3269 51.6731 2 34 2C16.3269 2 2 16.3269 2 34C2 51.6731 16.3269 66 34 66Z" stroke="#001A49" stroke-width="4"/>
<path d="M50.4296 23.0289C43.4437 21.7758 40.5554 20.8477 34.2499 18C27.9445 20.8477 25.0562 21.7758 18.0702 23.0289C16.8046 43.0883 33.0452 50.0148 34.2499 50.5C35.4546 50.0148 51.6952 43.0883 50.4296 23.0289Z" stroke="#001A49" stroke-width="3.5" stroke-linecap="round" stroke-linejoin="round"/>
</svg>
